<mxfile host="app.diagrams.net" agent="Mozilla/5.0 (Windows NT 10.0; Win64; x64) AppleWebKit/537.36 (KHTML, like Gecko) Chrome/132.0.0.0 Safari/537.36 OPR/117.0.0.0" version="26.2.13" pages="2">
  <diagram name="Labels" id="xo06NbJZDbdPquwiV3bX">
    <mxGraphModel dx="1239" dy="575" grid="1" gridSize="10" guides="1" tooltips="1" connect="1" arrows="1" fold="1" page="1" pageScale="1" pageWidth="827" pageHeight="1169" math="0" shadow="0">
      <root>
        <mxCell id="0" />
        <mxCell id="1" parent="0" />
        <mxCell id="dL3HsRPYZFrrwmkvRTTQ-1" value="" style="html=1;endSize=30;endArrow=block;endFill=0;elbow=horizontal;rounded=0;labelBackgroundColor=default;fontFamily=Helvetica;fontSize=11;fontColor=default;shape=connector;strokeWidth=1;" parent="1" edge="1">
          <mxGeometry x="1" relative="1" as="geometry">
            <mxPoint x="1240.6" y="120" as="targetPoint" />
            <mxPoint x="1240.6" y="200" as="sourcePoint" />
          </mxGeometry>
        </mxCell>
        <mxCell id="dL3HsRPYZFrrwmkvRTTQ-2" value="Generalization / Inheritance" style="text;html=1;align=center;verticalAlign=middle;resizable=0;points=[];autosize=1;strokeColor=none;fillColor=none;" parent="1" vertex="1">
          <mxGeometry x="1156" y="90" width="170" height="30" as="geometry" />
        </mxCell>
        <mxCell id="dL3HsRPYZFrrwmkvRTTQ-3" value="EER - Relations" style="shape=umlFrame;whiteSpace=wrap;html=1;pointerEvents=0;recursiveResize=0;container=1;collapsible=0;width=160;strokeWidth=2;" parent="1" vertex="1">
          <mxGeometry x="80" y="520" width="1320" height="720" as="geometry" />
        </mxCell>
        <mxCell id="dL3HsRPYZFrrwmkvRTTQ-4" value="0,1 : X" style="shape=umlFrame;whiteSpace=wrap;html=1;pointerEvents=0;recursiveResize=0;container=1;collapsible=0;width=160;" parent="dL3HsRPYZFrrwmkvRTTQ-3" vertex="1">
          <mxGeometry x="40" y="80" width="280" height="360" as="geometry" />
        </mxCell>
        <mxCell id="dL3HsRPYZFrrwmkvRTTQ-5" value="" style="fontSize=12;html=1;endArrow=ERzeroToMany;endFill=1;rounded=0;startArrow=ERzeroToOne;startFill=0;" parent="dL3HsRPYZFrrwmkvRTTQ-4" edge="1">
          <mxGeometry width="100" height="100" relative="1" as="geometry">
            <mxPoint x="40" y="239" as="sourcePoint" />
            <mxPoint x="240" y="239" as="targetPoint" />
          </mxGeometry>
        </mxCell>
        <mxCell id="dL3HsRPYZFrrwmkvRTTQ-6" value="(0,1) : (0,N)" style="text;html=1;align=center;verticalAlign=middle;resizable=0;points=[];autosize=1;strokeColor=none;fillColor=none;" parent="dL3HsRPYZFrrwmkvRTTQ-4" vertex="1">
          <mxGeometry x="105" y="209" width="80" height="30" as="geometry" />
        </mxCell>
        <mxCell id="dL3HsRPYZFrrwmkvRTTQ-7" value="" style="fontSize=12;html=1;endArrow=ERmandOne;rounded=0;startArrow=ERzeroToOne;startFill=0;" parent="dL3HsRPYZFrrwmkvRTTQ-4" edge="1">
          <mxGeometry width="100" height="100" relative="1" as="geometry">
            <mxPoint x="40" y="159.17000000000007" as="sourcePoint" />
            <mxPoint x="240" y="159.17000000000007" as="targetPoint" />
          </mxGeometry>
        </mxCell>
        <mxCell id="dL3HsRPYZFrrwmkvRTTQ-8" value="(0,1) : (1,1)" style="text;html=1;align=center;verticalAlign=middle;resizable=0;points=[];autosize=1;strokeColor=none;fillColor=none;" parent="dL3HsRPYZFrrwmkvRTTQ-4" vertex="1">
          <mxGeometry x="100" y="130" width="80" height="30" as="geometry" />
        </mxCell>
        <mxCell id="dL3HsRPYZFrrwmkvRTTQ-9" value="" style="fontSize=12;html=1;endArrow=ERoneToMany;rounded=0;startArrow=ERzeroToOne;startFill=0;" parent="dL3HsRPYZFrrwmkvRTTQ-4" edge="1">
          <mxGeometry width="100" height="100" relative="1" as="geometry">
            <mxPoint x="40" y="319" as="sourcePoint" />
            <mxPoint x="240" y="319" as="targetPoint" />
          </mxGeometry>
        </mxCell>
        <mxCell id="dL3HsRPYZFrrwmkvRTTQ-10" value="" style="fontSize=12;html=1;endArrow=ERzeroToOne;endFill=0;rounded=0;startArrow=ERzeroToOne;startFill=0;" parent="dL3HsRPYZFrrwmkvRTTQ-4" edge="1">
          <mxGeometry width="100" height="100" relative="1" as="geometry">
            <mxPoint x="40" y="79.67000000000007" as="sourcePoint" />
            <mxPoint x="240" y="80" as="targetPoint" />
          </mxGeometry>
        </mxCell>
        <mxCell id="dL3HsRPYZFrrwmkvRTTQ-11" value="(0,1) : (1,N)" style="text;html=1;align=center;verticalAlign=middle;resizable=0;points=[];autosize=1;strokeColor=none;fillColor=none;" parent="dL3HsRPYZFrrwmkvRTTQ-4" vertex="1">
          <mxGeometry x="105" y="289" width="80" height="30" as="geometry" />
        </mxCell>
        <mxCell id="dL3HsRPYZFrrwmkvRTTQ-12" value="(0,1) : (0,1)" style="text;html=1;align=center;verticalAlign=middle;resizable=0;points=[];autosize=1;strokeColor=none;fillColor=none;" parent="dL3HsRPYZFrrwmkvRTTQ-4" vertex="1">
          <mxGeometry x="100" y="50" width="80" height="30" as="geometry" />
        </mxCell>
        <mxCell id="dL3HsRPYZFrrwmkvRTTQ-13" value="1,1 : X" style="shape=umlFrame;whiteSpace=wrap;html=1;pointerEvents=0;recursiveResize=0;container=1;collapsible=0;width=160;" parent="dL3HsRPYZFrrwmkvRTTQ-3" vertex="1">
          <mxGeometry x="360" y="80" width="280" height="360" as="geometry" />
        </mxCell>
        <mxCell id="dL3HsRPYZFrrwmkvRTTQ-14" value="" style="fontSize=12;html=1;endArrow=ERmandOne;startArrow=ERmandOne;rounded=0;" parent="dL3HsRPYZFrrwmkvRTTQ-13" edge="1">
          <mxGeometry width="100" height="100" relative="1" as="geometry">
            <mxPoint x="40" y="159.17000000000007" as="sourcePoint" />
            <mxPoint x="240" y="159.17000000000007" as="targetPoint" />
          </mxGeometry>
        </mxCell>
        <mxCell id="dL3HsRPYZFrrwmkvRTTQ-15" value="(1,1) : (1,1)" style="text;html=1;align=center;verticalAlign=middle;resizable=0;points=[];autosize=1;strokeColor=none;fillColor=none;" parent="dL3HsRPYZFrrwmkvRTTQ-13" vertex="1">
          <mxGeometry x="105" y="129.17000000000007" width="80" height="30" as="geometry" />
        </mxCell>
        <mxCell id="dL3HsRPYZFrrwmkvRTTQ-16" value="" style="fontSize=12;html=1;endArrow=ERzeroToOne;rounded=0;startArrow=ERmandOne;startFill=0;endFill=0;" parent="dL3HsRPYZFrrwmkvRTTQ-13" edge="1">
          <mxGeometry width="100" height="100" relative="1" as="geometry">
            <mxPoint x="40" y="80.17000000000007" as="sourcePoint" />
            <mxPoint x="240" y="80.17000000000007" as="targetPoint" />
          </mxGeometry>
        </mxCell>
        <mxCell id="dL3HsRPYZFrrwmkvRTTQ-17" value="(1,1) : (0,1)" style="text;html=1;align=center;verticalAlign=middle;resizable=0;points=[];autosize=1;strokeColor=none;fillColor=none;" parent="dL3HsRPYZFrrwmkvRTTQ-13" vertex="1">
          <mxGeometry x="100" y="50" width="80" height="30" as="geometry" />
        </mxCell>
        <mxCell id="dL3HsRPYZFrrwmkvRTTQ-18" value="" style="fontSize=12;html=1;endArrow=ERzeroToMany;endFill=1;rounded=0;startArrow=ERmandOne;startFill=0;" parent="dL3HsRPYZFrrwmkvRTTQ-13" edge="1">
          <mxGeometry width="100" height="100" relative="1" as="geometry">
            <mxPoint x="40" y="240.17000000000007" as="sourcePoint" />
            <mxPoint x="240" y="240.17000000000007" as="targetPoint" />
          </mxGeometry>
        </mxCell>
        <mxCell id="dL3HsRPYZFrrwmkvRTTQ-19" value="(1,1) : (0,N)" style="text;html=1;align=center;verticalAlign=middle;resizable=0;points=[];autosize=1;strokeColor=none;fillColor=none;" parent="dL3HsRPYZFrrwmkvRTTQ-13" vertex="1">
          <mxGeometry x="105" y="210.17000000000007" width="80" height="30" as="geometry" />
        </mxCell>
        <mxCell id="dL3HsRPYZFrrwmkvRTTQ-20" value="" style="fontSize=12;html=1;endArrow=ERoneToMany;rounded=0;startArrow=ERmandOne;startFill=0;" parent="dL3HsRPYZFrrwmkvRTTQ-13" edge="1">
          <mxGeometry width="100" height="100" relative="1" as="geometry">
            <mxPoint x="40" y="320.1700000000001" as="sourcePoint" />
            <mxPoint x="240" y="320.1700000000001" as="targetPoint" />
          </mxGeometry>
        </mxCell>
        <mxCell id="dL3HsRPYZFrrwmkvRTTQ-21" value="(1,1) : (1,N)" style="text;html=1;align=center;verticalAlign=middle;resizable=0;points=[];autosize=1;strokeColor=none;fillColor=none;" parent="dL3HsRPYZFrrwmkvRTTQ-13" vertex="1">
          <mxGeometry x="105" y="290.1700000000001" width="80" height="30" as="geometry" />
        </mxCell>
        <mxCell id="dL3HsRPYZFrrwmkvRTTQ-22" value="0,N : X" style="shape=umlFrame;whiteSpace=wrap;html=1;pointerEvents=0;recursiveResize=0;container=1;collapsible=0;width=160;" parent="dL3HsRPYZFrrwmkvRTTQ-3" vertex="1">
          <mxGeometry x="680" y="80" width="280" height="360" as="geometry" />
        </mxCell>
        <mxCell id="dL3HsRPYZFrrwmkvRTTQ-23" value="" style="fontSize=12;html=1;endArrow=ERzeroToOne;endFill=0;rounded=0;startArrow=ERzeroToMany;startFill=0;" parent="dL3HsRPYZFrrwmkvRTTQ-22" edge="1">
          <mxGeometry width="100" height="100" relative="1" as="geometry">
            <mxPoint x="40" y="80" as="sourcePoint" />
            <mxPoint x="240" y="80" as="targetPoint" />
          </mxGeometry>
        </mxCell>
        <mxCell id="dL3HsRPYZFrrwmkvRTTQ-24" value="(0,N) : (0,1)" style="text;html=1;align=center;verticalAlign=middle;resizable=0;points=[];autosize=1;strokeColor=none;fillColor=none;" parent="dL3HsRPYZFrrwmkvRTTQ-22" vertex="1">
          <mxGeometry x="105" y="50" width="80" height="30" as="geometry" />
        </mxCell>
        <mxCell id="dL3HsRPYZFrrwmkvRTTQ-25" value="(0,N) : (1,1)" style="text;html=1;align=center;verticalAlign=middle;resizable=0;points=[];autosize=1;strokeColor=none;fillColor=none;" parent="dL3HsRPYZFrrwmkvRTTQ-22" vertex="1">
          <mxGeometry x="105" y="127.94999999999982" width="80" height="30" as="geometry" />
        </mxCell>
        <mxCell id="dL3HsRPYZFrrwmkvRTTQ-26" value="(0,N) : (0,N)" style="text;html=1;align=center;verticalAlign=middle;resizable=0;points=[];autosize=1;strokeColor=none;fillColor=none;" parent="dL3HsRPYZFrrwmkvRTTQ-22" vertex="1">
          <mxGeometry x="100" y="209.47000000000003" width="90" height="30" as="geometry" />
        </mxCell>
        <mxCell id="dL3HsRPYZFrrwmkvRTTQ-27" value="(0,N) : (1,N)" style="text;html=1;align=center;verticalAlign=middle;resizable=0;points=[];autosize=1;strokeColor=none;fillColor=none;" parent="dL3HsRPYZFrrwmkvRTTQ-22" vertex="1">
          <mxGeometry x="100" y="290" width="90" height="30" as="geometry" />
        </mxCell>
        <mxCell id="dL3HsRPYZFrrwmkvRTTQ-28" value="" style="fontSize=12;html=1;endArrow=ERmandOne;endFill=0;rounded=0;startArrow=ERzeroToMany;startFill=0;" parent="dL3HsRPYZFrrwmkvRTTQ-22" edge="1">
          <mxGeometry width="100" height="100" relative="1" as="geometry">
            <mxPoint x="40" y="160" as="sourcePoint" />
            <mxPoint x="240" y="160" as="targetPoint" />
          </mxGeometry>
        </mxCell>
        <mxCell id="dL3HsRPYZFrrwmkvRTTQ-29" value="" style="fontSize=12;html=1;endArrow=ERzeroToMany;endFill=0;rounded=0;startArrow=ERzeroToMany;startFill=0;" parent="dL3HsRPYZFrrwmkvRTTQ-22" edge="1">
          <mxGeometry width="100" height="100" relative="1" as="geometry">
            <mxPoint x="40" y="240" as="sourcePoint" />
            <mxPoint x="240" y="240" as="targetPoint" />
          </mxGeometry>
        </mxCell>
        <mxCell id="dL3HsRPYZFrrwmkvRTTQ-30" value="" style="fontSize=12;html=1;endArrow=ERoneToMany;endFill=0;rounded=0;startArrow=ERzeroToMany;startFill=0;" parent="dL3HsRPYZFrrwmkvRTTQ-22" edge="1">
          <mxGeometry width="100" height="100" relative="1" as="geometry">
            <mxPoint x="40" y="320" as="sourcePoint" />
            <mxPoint x="240" y="320" as="targetPoint" />
          </mxGeometry>
        </mxCell>
        <mxCell id="dL3HsRPYZFrrwmkvRTTQ-31" value="1,N : X" style="shape=umlFrame;whiteSpace=wrap;html=1;pointerEvents=0;recursiveResize=0;container=1;collapsible=0;width=160;" parent="dL3HsRPYZFrrwmkvRTTQ-3" vertex="1">
          <mxGeometry x="1000" y="80" width="280" height="360" as="geometry" />
        </mxCell>
        <mxCell id="dL3HsRPYZFrrwmkvRTTQ-32" value="" style="fontSize=12;html=1;endArrow=ERzeroToOne;endFill=0;rounded=0;startArrow=ERoneToMany;startFill=0;" parent="dL3HsRPYZFrrwmkvRTTQ-31" edge="1">
          <mxGeometry width="100" height="100" relative="1" as="geometry">
            <mxPoint x="40" y="80" as="sourcePoint" />
            <mxPoint x="240" y="80" as="targetPoint" />
          </mxGeometry>
        </mxCell>
        <mxCell id="dL3HsRPYZFrrwmkvRTTQ-33" value="(1,N) : (0,1)" style="text;html=1;align=center;verticalAlign=middle;resizable=0;points=[];autosize=1;strokeColor=none;fillColor=none;" parent="dL3HsRPYZFrrwmkvRTTQ-31" vertex="1">
          <mxGeometry x="105" y="50" width="80" height="30" as="geometry" />
        </mxCell>
        <mxCell id="dL3HsRPYZFrrwmkvRTTQ-34" value="" style="fontSize=12;html=1;endArrow=ERmandOne;endFill=0;rounded=0;startArrow=ERoneToMany;startFill=0;" parent="dL3HsRPYZFrrwmkvRTTQ-31" edge="1">
          <mxGeometry width="100" height="100" relative="1" as="geometry">
            <mxPoint x="40" y="160.69000000000005" as="sourcePoint" />
            <mxPoint x="240" y="160.69000000000005" as="targetPoint" />
          </mxGeometry>
        </mxCell>
        <mxCell id="dL3HsRPYZFrrwmkvRTTQ-35" value="(1,N) : (1,1)" style="text;html=1;align=center;verticalAlign=middle;resizable=0;points=[];autosize=1;strokeColor=none;fillColor=none;" parent="dL3HsRPYZFrrwmkvRTTQ-31" vertex="1">
          <mxGeometry x="105" y="130.69000000000005" width="80" height="30" as="geometry" />
        </mxCell>
        <mxCell id="dL3HsRPYZFrrwmkvRTTQ-36" value="" style="fontSize=12;html=1;endArrow=ERzeroToMany;endFill=0;rounded=0;startArrow=ERoneToMany;startFill=0;" parent="dL3HsRPYZFrrwmkvRTTQ-31" edge="1">
          <mxGeometry width="100" height="100" relative="1" as="geometry">
            <mxPoint x="40" y="239.17000000000007" as="sourcePoint" />
            <mxPoint x="240" y="239.17000000000007" as="targetPoint" />
          </mxGeometry>
        </mxCell>
        <mxCell id="dL3HsRPYZFrrwmkvRTTQ-37" value="(1,N) : (0,N)" style="text;html=1;align=center;verticalAlign=middle;resizable=0;points=[];autosize=1;strokeColor=none;fillColor=none;" parent="dL3HsRPYZFrrwmkvRTTQ-31" vertex="1">
          <mxGeometry x="100" y="209.17000000000007" width="90" height="30" as="geometry" />
        </mxCell>
        <mxCell id="dL3HsRPYZFrrwmkvRTTQ-38" value="" style="fontSize=12;html=1;endArrow=ERoneToMany;endFill=0;rounded=0;startArrow=ERoneToMany;startFill=0;" parent="dL3HsRPYZFrrwmkvRTTQ-31" edge="1">
          <mxGeometry width="100" height="100" relative="1" as="geometry">
            <mxPoint x="40" y="321.22" as="sourcePoint" />
            <mxPoint x="240" y="321.22" as="targetPoint" />
          </mxGeometry>
        </mxCell>
        <mxCell id="dL3HsRPYZFrrwmkvRTTQ-39" value="(1,N) : (1,N)" style="text;html=1;align=center;verticalAlign=middle;resizable=0;points=[];autosize=1;strokeColor=none;fillColor=none;" parent="dL3HsRPYZFrrwmkvRTTQ-31" vertex="1">
          <mxGeometry x="100" y="291.22" width="90" height="30" as="geometry" />
        </mxCell>
        <mxCell id="dL3HsRPYZFrrwmkvRTTQ-40" value="Markers" style="shape=umlFrame;whiteSpace=wrap;html=1;pointerEvents=0;recursiveResize=0;container=1;collapsible=0;width=160;" parent="dL3HsRPYZFrrwmkvRTTQ-3" vertex="1">
          <mxGeometry x="40" y="480" width="360" height="200" as="geometry" />
        </mxCell>
        <mxCell id="dL3HsRPYZFrrwmkvRTTQ-41" value="" style="fontSize=12;html=1;endArrow=ERmany;endFill=0;rounded=0;startArrow=none;startFill=0;" parent="dL3HsRPYZFrrwmkvRTTQ-40" edge="1">
          <mxGeometry width="100" height="100" relative="1" as="geometry">
            <mxPoint x="200" y="80" as="sourcePoint" />
            <mxPoint x="320" y="80" as="targetPoint" />
          </mxGeometry>
        </mxCell>
        <mxCell id="dL3HsRPYZFrrwmkvRTTQ-42" value="" style="fontSize=12;html=1;endArrow=baseDash;endFill=0;rounded=0;startArrow=none;startFill=0;" parent="dL3HsRPYZFrrwmkvRTTQ-40" edge="1">
          <mxGeometry width="100" height="100" relative="1" as="geometry">
            <mxPoint x="40" y="80" as="sourcePoint" />
            <mxPoint x="160" y="80" as="targetPoint" />
          </mxGeometry>
        </mxCell>
        <mxCell id="dL3HsRPYZFrrwmkvRTTQ-43" value="" style="fontSize=12;html=1;endArrow=ERzeroToOne;endFill=0;rounded=0;startArrow=none;startFill=0;" parent="dL3HsRPYZFrrwmkvRTTQ-40" edge="1">
          <mxGeometry width="100" height="100" relative="1" as="geometry">
            <mxPoint x="40" y="120" as="sourcePoint" />
            <mxPoint x="160" y="120" as="targetPoint" />
          </mxGeometry>
        </mxCell>
        <mxCell id="dL3HsRPYZFrrwmkvRTTQ-44" value="" style="fontSize=12;html=1;endArrow=ERmandOne;endFill=0;rounded=0;startArrow=none;startFill=0;" parent="dL3HsRPYZFrrwmkvRTTQ-40" edge="1">
          <mxGeometry width="100" height="100" relative="1" as="geometry">
            <mxPoint x="40" y="160" as="sourcePoint" />
            <mxPoint x="160" y="160" as="targetPoint" />
          </mxGeometry>
        </mxCell>
        <mxCell id="dL3HsRPYZFrrwmkvRTTQ-45" value="1" style="text;html=1;align=center;verticalAlign=middle;resizable=0;points=[];autosize=1;strokeColor=none;fillColor=none;" parent="dL3HsRPYZFrrwmkvRTTQ-40" vertex="1">
          <mxGeometry x="90" y="50" width="30" height="30" as="geometry" />
        </mxCell>
        <mxCell id="dL3HsRPYZFrrwmkvRTTQ-46" value="&lt;div&gt;N&lt;/div&gt;" style="text;html=1;align=center;verticalAlign=middle;resizable=0;points=[];autosize=1;strokeColor=none;fillColor=none;" parent="dL3HsRPYZFrrwmkvRTTQ-40" vertex="1">
          <mxGeometry x="250" y="50" width="30" height="30" as="geometry" />
        </mxCell>
        <mxCell id="dL3HsRPYZFrrwmkvRTTQ-47" value="1 Optional" style="text;html=1;align=center;verticalAlign=middle;resizable=0;points=[];autosize=1;strokeColor=none;fillColor=none;" parent="dL3HsRPYZFrrwmkvRTTQ-40" vertex="1">
          <mxGeometry x="65" y="90" width="80" height="30" as="geometry" />
        </mxCell>
        <mxCell id="dL3HsRPYZFrrwmkvRTTQ-48" value="1 Required" style="text;html=1;align=center;verticalAlign=middle;resizable=0;points=[];autosize=1;strokeColor=none;fillColor=none;" parent="dL3HsRPYZFrrwmkvRTTQ-40" vertex="1">
          <mxGeometry x="65" y="130" width="80" height="30" as="geometry" />
        </mxCell>
        <mxCell id="dL3HsRPYZFrrwmkvRTTQ-49" value="N Optional" style="text;html=1;align=center;verticalAlign=middle;resizable=0;points=[];autosize=1;strokeColor=none;fillColor=none;" parent="dL3HsRPYZFrrwmkvRTTQ-40" vertex="1">
          <mxGeometry x="225" y="90" width="80" height="30" as="geometry" />
        </mxCell>
        <mxCell id="dL3HsRPYZFrrwmkvRTTQ-50" value="" style="fontSize=12;html=1;endArrow=ERzeroToMany;endFill=0;rounded=0;startArrow=none;startFill=0;" parent="dL3HsRPYZFrrwmkvRTTQ-40" edge="1">
          <mxGeometry width="100" height="100" relative="1" as="geometry">
            <mxPoint x="200" y="120" as="sourcePoint" />
            <mxPoint x="320" y="120" as="targetPoint" />
          </mxGeometry>
        </mxCell>
        <mxCell id="dL3HsRPYZFrrwmkvRTTQ-51" value="" style="fontSize=12;html=1;endArrow=ERoneToMany;endFill=0;rounded=0;startArrow=none;startFill=0;" parent="dL3HsRPYZFrrwmkvRTTQ-40" edge="1">
          <mxGeometry width="100" height="100" relative="1" as="geometry">
            <mxPoint x="200" y="159.70000000000005" as="sourcePoint" />
            <mxPoint x="320" y="159.70000000000005" as="targetPoint" />
          </mxGeometry>
        </mxCell>
        <mxCell id="dL3HsRPYZFrrwmkvRTTQ-52" value="N Required" style="text;html=1;align=center;verticalAlign=middle;resizable=0;points=[];autosize=1;strokeColor=none;fillColor=none;" parent="dL3HsRPYZFrrwmkvRTTQ-40" vertex="1">
          <mxGeometry x="225" y="129.70000000000005" width="80" height="30" as="geometry" />
        </mxCell>
        <mxCell id="dL3HsRPYZFrrwmkvRTTQ-53" value="TABLE" style="swimlane;fontStyle=0;childLayout=stackLayout;horizontal=1;startSize=26;fillColor=#008CFF;horizontalStack=0;resizeParent=1;resizeParentMax=0;resizeLast=0;collapsible=1;marginBottom=0;swimlaneFillColor=#ffffff;align=center;fontSize=14;strokeColor=#000000;gradientColor=none;strokeWidth=2;rounded=1;fontColor=#FFFFFF;" parent="1" vertex="1">
          <mxGeometry x="80" y="40" width="400" height="404" as="geometry" />
        </mxCell>
        <mxCell id="dL3HsRPYZFrrwmkvRTTQ-54" value="uuid | UUID NOT NULL" style="shape=partialRectangle;top=0;left=0;right=0;bottom=1;align=left;verticalAlign=middle;fillColor=none;spacingLeft=54;spacingRight=4;overflow=hidden;rotatable=0;points=[[0,0.5],[1,0.5]];portConstraint=eastwest;dropTarget=0;fontStyle=5;fontSize=12;" parent="dL3HsRPYZFrrwmkvRTTQ-53" vertex="1">
          <mxGeometry y="26" width="400" height="30" as="geometry" />
        </mxCell>
        <mxCell id="dL3HsRPYZFrrwmkvRTTQ-55" value="PK" style="shape=partialRectangle;top=0;left=0;bottom=0;fillColor=none;align=center;verticalAlign=middle;spacingLeft=4;spacingRight=4;overflow=hidden;rotatable=0;points=[];portConstraint=eastwest;part=1;fontSize=12;" parent="dL3HsRPYZFrrwmkvRTTQ-54" connectable="0" vertex="1">
          <mxGeometry width="50" height="30" as="geometry" />
        </mxCell>
        <mxCell id="dL3HsRPYZFrrwmkvRTTQ-56" value="created_at | timestamp NOT NULL" style="shape=partialRectangle;top=0;left=0;right=0;bottom=0;align=left;verticalAlign=top;fillColor=none;spacingLeft=54;spacingRight=4;overflow=hidden;rotatable=0;points=[[0,0.5],[1,0.5]];portConstraint=eastwest;dropTarget=0;fontSize=12;" parent="dL3HsRPYZFrrwmkvRTTQ-53" vertex="1">
          <mxGeometry y="56" width="400" height="26" as="geometry" />
        </mxCell>
        <mxCell id="dL3HsRPYZFrrwmkvRTTQ-57" value="" style="shape=partialRectangle;top=0;left=0;bottom=0;fillColor=none;align=center;verticalAlign=top;spacingLeft=4;spacingRight=4;overflow=hidden;rotatable=0;points=[];portConstraint=eastwest;part=1;fontSize=12;" parent="dL3HsRPYZFrrwmkvRTTQ-56" connectable="0" vertex="1">
          <mxGeometry width="50" height="26" as="geometry" />
        </mxCell>
        <mxCell id="dL3HsRPYZFrrwmkvRTTQ-58" value="updated_at | timestamp NOT NULL" style="shape=partialRectangle;top=0;left=0;right=0;bottom=0;align=left;verticalAlign=top;fillColor=none;spacingLeft=54;spacingRight=4;overflow=hidden;rotatable=0;points=[[0,0.5],[1,0.5]];portConstraint=eastwest;dropTarget=0;fontSize=12;" parent="dL3HsRPYZFrrwmkvRTTQ-53" vertex="1">
          <mxGeometry y="82" width="400" height="26" as="geometry" />
        </mxCell>
        <mxCell id="dL3HsRPYZFrrwmkvRTTQ-59" value="" style="shape=partialRectangle;top=0;left=0;bottom=0;fillColor=none;align=center;verticalAlign=top;spacingLeft=4;spacingRight=4;overflow=hidden;rotatable=0;points=[];portConstraint=eastwest;part=1;fontSize=12;" parent="dL3HsRPYZFrrwmkvRTTQ-58" connectable="0" vertex="1">
          <mxGeometry width="50" height="26" as="geometry" />
        </mxCell>
        <mxCell id="dL3HsRPYZFrrwmkvRTTQ-60" value="deleted_at | timestamp DEFAULT(null)" style="shape=partialRectangle;top=0;left=0;right=0;bottom=0;align=left;verticalAlign=top;fillColor=none;spacingLeft=54;spacingRight=4;overflow=hidden;rotatable=0;points=[[0,0.5],[1,0.5]];portConstraint=eastwest;dropTarget=0;fontSize=12;" parent="dL3HsRPYZFrrwmkvRTTQ-53" vertex="1">
          <mxGeometry y="108" width="400" height="26" as="geometry" />
        </mxCell>
        <mxCell id="dL3HsRPYZFrrwmkvRTTQ-61" value="" style="shape=partialRectangle;top=0;left=0;bottom=0;fillColor=none;align=center;verticalAlign=top;spacingLeft=4;spacingRight=4;overflow=hidden;rotatable=0;points=[];portConstraint=eastwest;part=1;fontSize=12;" parent="dL3HsRPYZFrrwmkvRTTQ-60" connectable="0" vertex="1">
          <mxGeometry width="50" height="26" as="geometry" />
        </mxCell>
        <mxCell id="dL3HsRPYZFrrwmkvRTTQ-62" value="name" style="shape=partialRectangle;top=0;left=0;right=0;bottom=0;align=left;verticalAlign=top;fillColor=none;spacingLeft=54;spacingRight=4;overflow=hidden;rotatable=0;points=[[0,0.5],[1,0.5]];portConstraint=eastwest;dropTarget=0;fontSize=12;" parent="dL3HsRPYZFrrwmkvRTTQ-53" vertex="1">
          <mxGeometry y="134" width="400" height="26" as="geometry" />
        </mxCell>
        <mxCell id="dL3HsRPYZFrrwmkvRTTQ-63" value="" style="shape=partialRectangle;top=0;left=0;bottom=0;fillColor=none;align=center;verticalAlign=top;spacingLeft=4;spacingRight=4;overflow=hidden;rotatable=0;points=[];portConstraint=eastwest;part=1;fontSize=12;" parent="dL3HsRPYZFrrwmkvRTTQ-62" connectable="0" vertex="1">
          <mxGeometry width="50" height="26" as="geometry" />
        </mxCell>
        <mxCell id="dL3HsRPYZFrrwmkvRTTQ-64" value="email | [unique] varchar(255) NOT NULL" style="shape=partialRectangle;top=0;left=0;right=0;bottom=0;align=left;verticalAlign=top;fillColor=none;spacingLeft=54;spacingRight=4;overflow=hidden;rotatable=0;points=[[0,0.5],[1,0.5]];portConstraint=eastwest;dropTarget=0;fontSize=12;" parent="dL3HsRPYZFrrwmkvRTTQ-53" vertex="1">
          <mxGeometry y="160" width="400" height="26" as="geometry" />
        </mxCell>
        <mxCell id="dL3HsRPYZFrrwmkvRTTQ-65" value="" style="shape=partialRectangle;top=0;left=0;bottom=0;fillColor=none;align=center;verticalAlign=top;spacingLeft=4;spacingRight=4;overflow=hidden;rotatable=0;points=[];portConstraint=eastwest;part=1;fontSize=12;" parent="dL3HsRPYZFrrwmkvRTTQ-64" connectable="0" vertex="1">
          <mxGeometry width="50" height="26" as="geometry" />
        </mxCell>
        <mxCell id="dL3HsRPYZFrrwmkvRTTQ-66" value="email_verified_at" style="shape=partialRectangle;top=0;left=0;right=0;bottom=0;align=left;verticalAlign=top;fillColor=none;spacingLeft=54;spacingRight=4;overflow=hidden;rotatable=0;points=[[0,0.5],[1,0.5]];portConstraint=eastwest;dropTarget=0;fontSize=12;" parent="dL3HsRPYZFrrwmkvRTTQ-53" vertex="1">
          <mxGeometry y="186" width="400" height="26" as="geometry" />
        </mxCell>
        <mxCell id="dL3HsRPYZFrrwmkvRTTQ-67" value="" style="shape=partialRectangle;top=0;left=0;bottom=0;fillColor=none;align=center;verticalAlign=top;spacingLeft=4;spacingRight=4;overflow=hidden;rotatable=0;points=[];portConstraint=eastwest;part=1;fontSize=12;" parent="dL3HsRPYZFrrwmkvRTTQ-66" connectable="0" vertex="1">
          <mxGeometry width="50" height="26" as="geometry" />
        </mxCell>
        <mxCell id="dL3HsRPYZFrrwmkvRTTQ-68" value="user_code | [unique] varchar(255) NOT NULL" style="shape=partialRectangle;top=0;left=0;right=0;bottom=0;align=left;verticalAlign=top;fillColor=none;spacingLeft=54;spacingRight=4;overflow=hidden;rotatable=0;points=[[0,0.5],[1,0.5]];portConstraint=eastwest;dropTarget=0;fontSize=12;" parent="dL3HsRPYZFrrwmkvRTTQ-53" vertex="1">
          <mxGeometry y="212" width="400" height="26" as="geometry" />
        </mxCell>
        <mxCell id="dL3HsRPYZFrrwmkvRTTQ-69" value="" style="shape=partialRectangle;top=0;left=0;bottom=0;fillColor=none;align=center;verticalAlign=top;spacingLeft=4;spacingRight=4;overflow=hidden;rotatable=0;points=[];portConstraint=eastwest;part=1;fontSize=12;" parent="dL3HsRPYZFrrwmkvRTTQ-68" connectable="0" vertex="1">
          <mxGeometry width="50" height="26" as="geometry" />
        </mxCell>
        <mxCell id="dL3HsRPYZFrrwmkvRTTQ-70" value="configurations | [JSON] DEFAULT(null)" style="shape=partialRectangle;top=0;left=0;right=0;bottom=0;align=left;verticalAlign=top;fillColor=none;spacingLeft=54;spacingRight=4;overflow=hidden;rotatable=0;points=[[0,0.5],[1,0.5]];portConstraint=eastwest;dropTarget=0;fontSize=12;" parent="dL3HsRPYZFrrwmkvRTTQ-53" vertex="1">
          <mxGeometry y="238" width="400" height="26" as="geometry" />
        </mxCell>
        <mxCell id="dL3HsRPYZFrrwmkvRTTQ-71" value="" style="shape=partialRectangle;top=0;left=0;bottom=0;fillColor=none;align=center;verticalAlign=top;spacingLeft=4;spacingRight=4;overflow=hidden;rotatable=0;points=[];portConstraint=eastwest;part=1;fontSize=12;" parent="dL3HsRPYZFrrwmkvRTTQ-70" connectable="0" vertex="1">
          <mxGeometry width="50" height="26" as="geometry" />
        </mxCell>
        <mxCell id="FZ6vCe6vbh4A3yYrGbab-1" value="" style="shape=partialRectangle;top=0;left=0;right=0;bottom=0;align=left;verticalAlign=top;fillColor=none;spacingLeft=54;spacingRight=4;overflow=hidden;rotatable=0;points=[[0,0.5],[1,0.5]];portConstraint=eastwest;dropTarget=0;fontSize=12;" parent="dL3HsRPYZFrrwmkvRTTQ-53" vertex="1">
          <mxGeometry y="264" width="400" height="26" as="geometry" />
        </mxCell>
        <mxCell id="FZ6vCe6vbh4A3yYrGbab-2" value="" style="shape=partialRectangle;top=0;left=0;bottom=0;fillColor=none;align=center;verticalAlign=top;spacingLeft=4;spacingRight=4;overflow=hidden;rotatable=0;points=[];portConstraint=eastwest;part=1;fontSize=12;" parent="FZ6vCe6vbh4A3yYrGbab-1" connectable="0" vertex="1">
          <mxGeometry width="50" height="26" as="geometry" />
        </mxCell>
        <mxCell id="dL3HsRPYZFrrwmkvRTTQ-72" value="foreign_key_identifier" style="shape=partialRectangle;top=0;left=0;right=0;bottom=0;align=left;verticalAlign=top;fillColor=none;spacingLeft=54;spacingRight=4;overflow=hidden;rotatable=0;points=[[0,0.5],[1,0.5]];portConstraint=eastwest;dropTarget=0;fontSize=12;" parent="dL3HsRPYZFrrwmkvRTTQ-53" vertex="1">
          <mxGeometry y="290" width="400" height="26" as="geometry" />
        </mxCell>
        <mxCell id="dL3HsRPYZFrrwmkvRTTQ-73" value="FK" style="shape=partialRectangle;top=0;left=0;bottom=0;fillColor=none;align=center;verticalAlign=top;spacingLeft=4;spacingRight=4;overflow=hidden;rotatable=0;points=[];portConstraint=eastwest;part=1;fontSize=12;" parent="dL3HsRPYZFrrwmkvRTTQ-72" connectable="0" vertex="1">
          <mxGeometry width="50" height="26" as="geometry" />
        </mxCell>
        <mxCell id="dL3HsRPYZFrrwmkvRTTQ-74" value="api_key_identifier" style="shape=partialRectangle;top=0;left=0;right=0;bottom=0;align=left;verticalAlign=top;fillColor=none;spacingLeft=54;spacingRight=4;overflow=hidden;rotatable=0;points=[[0,0.5],[1,0.5]];portConstraint=eastwest;dropTarget=0;fontSize=12;" parent="dL3HsRPYZFrrwmkvRTTQ-53" vertex="1">
          <mxGeometry y="316" width="400" height="26" as="geometry" />
        </mxCell>
        <mxCell id="dL3HsRPYZFrrwmkvRTTQ-75" value="API" style="shape=partialRectangle;top=0;left=0;bottom=0;fillColor=none;align=center;verticalAlign=top;spacingLeft=4;spacingRight=4;overflow=hidden;rotatable=0;points=[];portConstraint=eastwest;part=1;fontSize=12;" parent="dL3HsRPYZFrrwmkvRTTQ-74" connectable="0" vertex="1">
          <mxGeometry width="50" height="26" as="geometry" />
        </mxCell>
        <mxCell id="dL3HsRPYZFrrwmkvRTTQ-76" value="keycloak_key_identifier" style="shape=partialRectangle;top=0;left=0;right=0;bottom=0;align=left;verticalAlign=top;fillColor=none;spacingLeft=54;spacingRight=4;overflow=hidden;rotatable=0;points=[[0,0.5],[1,0.5]];portConstraint=eastwest;dropTarget=0;fontSize=12;" parent="dL3HsRPYZFrrwmkvRTTQ-53" vertex="1">
          <mxGeometry y="342" width="400" height="26" as="geometry" />
        </mxCell>
        <mxCell id="dL3HsRPYZFrrwmkvRTTQ-77" value="KC" style="shape=partialRectangle;top=0;left=0;bottom=0;fillColor=none;align=center;verticalAlign=top;spacingLeft=4;spacingRight=4;overflow=hidden;rotatable=0;points=[];portConstraint=eastwest;part=1;fontSize=12;" parent="dL3HsRPYZFrrwmkvRTTQ-76" connectable="0" vertex="1">
          <mxGeometry width="50" height="26" as="geometry" />
        </mxCell>
        <mxCell id="QZ302hEmAq9ygZxuVVmA-1" value="microservice_key_identifier" style="shape=partialRectangle;top=0;left=0;right=0;bottom=0;align=left;verticalAlign=top;fillColor=none;spacingLeft=54;spacingRight=4;overflow=hidden;rotatable=0;points=[[0,0.5],[1,0.5]];portConstraint=eastwest;dropTarget=0;fontSize=12;" parent="dL3HsRPYZFrrwmkvRTTQ-53" vertex="1">
          <mxGeometry y="368" width="400" height="26" as="geometry" />
        </mxCell>
        <mxCell id="QZ302hEmAq9ygZxuVVmA-2" value="MS" style="shape=partialRectangle;top=0;left=0;bottom=0;fillColor=none;align=center;verticalAlign=top;spacingLeft=4;spacingRight=4;overflow=hidden;rotatable=0;points=[];portConstraint=eastwest;part=1;fontSize=12;" parent="QZ302hEmAq9ygZxuVVmA-1" connectable="0" vertex="1">
          <mxGeometry width="50" height="26" as="geometry" />
        </mxCell>
        <mxCell id="dL3HsRPYZFrrwmkvRTTQ-78" value="" style="shape=partialRectangle;top=0;left=0;right=0;bottom=0;align=left;verticalAlign=top;fillColor=none;spacingLeft=54;spacingRight=4;overflow=hidden;rotatable=0;points=[[0,0.5],[1,0.5]];portConstraint=eastwest;dropTarget=0;fontSize=12;" parent="dL3HsRPYZFrrwmkvRTTQ-53" vertex="1">
          <mxGeometry y="394" width="400" height="10" as="geometry" />
        </mxCell>
        <mxCell id="dL3HsRPYZFrrwmkvRTTQ-79" value="" style="shape=partialRectangle;top=0;left=0;bottom=0;fillColor=none;align=left;verticalAlign=top;spacingLeft=4;spacingRight=4;overflow=hidden;rotatable=0;points=[];portConstraint=eastwest;part=1;fontSize=12;" parent="dL3HsRPYZFrrwmkvRTTQ-78" connectable="0" vertex="1">
          <mxGeometry width="50" height="10" as="geometry" />
        </mxCell>
        <mxCell id="dL3HsRPYZFrrwmkvRTTQ-80" value="RELATIONSHIP_TABLE" style="swimlane;fontStyle=0;childLayout=stackLayout;horizontal=1;startSize=26;fillColor=#FF5328;horizontalStack=0;resizeParent=1;resizeParentMax=0;resizeLast=0;collapsible=1;marginBottom=0;swimlaneFillColor=#ffffff;align=center;fontSize=14;strokeColor=#000000;gradientColor=none;strokeWidth=2;rounded=1;fontColor=#FFFFFF;" parent="1" vertex="1">
          <mxGeometry x="600" y="40" width="400" height="300" as="geometry" />
        </mxCell>
        <mxCell id="dL3HsRPYZFrrwmkvRTTQ-81" value="uuid | UUID NOT NULL" style="shape=partialRectangle;top=0;left=0;right=0;bottom=1;align=left;verticalAlign=middle;fillColor=none;spacingLeft=54;spacingRight=4;overflow=hidden;rotatable=0;points=[[0,0.5],[1,0.5]];portConstraint=eastwest;dropTarget=0;fontStyle=5;fontSize=12;" parent="dL3HsRPYZFrrwmkvRTTQ-80" vertex="1">
          <mxGeometry y="26" width="400" height="30" as="geometry" />
        </mxCell>
        <mxCell id="dL3HsRPYZFrrwmkvRTTQ-82" value="PK" style="shape=partialRectangle;top=0;left=0;bottom=0;fillColor=none;align=center;verticalAlign=middle;spacingLeft=4;spacingRight=4;overflow=hidden;rotatable=0;points=[];portConstraint=eastwest;part=1;fontSize=12;" parent="dL3HsRPYZFrrwmkvRTTQ-81" connectable="0" vertex="1">
          <mxGeometry width="50" height="30" as="geometry" />
        </mxCell>
        <mxCell id="dL3HsRPYZFrrwmkvRTTQ-83" value="created_at | timestamp NOT NULL" style="shape=partialRectangle;top=0;left=0;right=0;bottom=0;align=left;verticalAlign=top;fillColor=none;spacingLeft=54;spacingRight=4;overflow=hidden;rotatable=0;points=[[0,0.5],[1,0.5]];portConstraint=eastwest;dropTarget=0;fontSize=12;" parent="dL3HsRPYZFrrwmkvRTTQ-80" vertex="1">
          <mxGeometry y="56" width="400" height="26" as="geometry" />
        </mxCell>
        <mxCell id="dL3HsRPYZFrrwmkvRTTQ-84" value="" style="shape=partialRectangle;top=0;left=0;bottom=0;fillColor=none;align=center;verticalAlign=top;spacingLeft=4;spacingRight=4;overflow=hidden;rotatable=0;points=[];portConstraint=eastwest;part=1;fontSize=12;" parent="dL3HsRPYZFrrwmkvRTTQ-83" connectable="0" vertex="1">
          <mxGeometry width="50" height="26" as="geometry" />
        </mxCell>
        <mxCell id="dL3HsRPYZFrrwmkvRTTQ-85" value="updated_at | timestamp NOT NULL" style="shape=partialRectangle;top=0;left=0;right=0;bottom=0;align=left;verticalAlign=top;fillColor=none;spacingLeft=54;spacingRight=4;overflow=hidden;rotatable=0;points=[[0,0.5],[1,0.5]];portConstraint=eastwest;dropTarget=0;fontSize=12;" parent="dL3HsRPYZFrrwmkvRTTQ-80" vertex="1">
          <mxGeometry y="82" width="400" height="26" as="geometry" />
        </mxCell>
        <mxCell id="dL3HsRPYZFrrwmkvRTTQ-86" value="" style="shape=partialRectangle;top=0;left=0;bottom=0;fillColor=none;align=center;verticalAlign=top;spacingLeft=4;spacingRight=4;overflow=hidden;rotatable=0;points=[];portConstraint=eastwest;part=1;fontSize=12;" parent="dL3HsRPYZFrrwmkvRTTQ-85" connectable="0" vertex="1">
          <mxGeometry width="50" height="26" as="geometry" />
        </mxCell>
        <mxCell id="dL3HsRPYZFrrwmkvRTTQ-87" value="deleted_at | timestamp DEFAULT(null)" style="shape=partialRectangle;top=0;left=0;right=0;bottom=0;align=left;verticalAlign=top;fillColor=none;spacingLeft=54;spacingRight=4;overflow=hidden;rotatable=0;points=[[0,0.5],[1,0.5]];portConstraint=eastwest;dropTarget=0;fontSize=12;" parent="dL3HsRPYZFrrwmkvRTTQ-80" vertex="1">
          <mxGeometry y="108" width="400" height="26" as="geometry" />
        </mxCell>
        <mxCell id="dL3HsRPYZFrrwmkvRTTQ-88" value="" style="shape=partialRectangle;top=0;left=0;bottom=0;fillColor=none;align=center;verticalAlign=top;spacingLeft=4;spacingRight=4;overflow=hidden;rotatable=0;points=[];portConstraint=eastwest;part=1;fontSize=12;" parent="dL3HsRPYZFrrwmkvRTTQ-87" connectable="0" vertex="1">
          <mxGeometry width="50" height="26" as="geometry" />
        </mxCell>
        <mxCell id="dL3HsRPYZFrrwmkvRTTQ-89" value="" style="shape=partialRectangle;top=0;left=0;right=0;bottom=0;align=left;verticalAlign=top;fillColor=none;spacingLeft=54;spacingRight=4;overflow=hidden;rotatable=0;points=[[0,0.5],[1,0.5]];portConstraint=eastwest;dropTarget=0;fontSize=12;" parent="dL3HsRPYZFrrwmkvRTTQ-80" vertex="1">
          <mxGeometry y="134" width="400" height="26" as="geometry" />
        </mxCell>
        <mxCell id="dL3HsRPYZFrrwmkvRTTQ-90" value="" style="shape=partialRectangle;top=0;left=0;bottom=0;fillColor=none;align=center;verticalAlign=top;spacingLeft=4;spacingRight=4;overflow=hidden;rotatable=0;points=[];portConstraint=eastwest;part=1;fontSize=12;" parent="dL3HsRPYZFrrwmkvRTTQ-89" connectable="0" vertex="1">
          <mxGeometry width="50" height="26" as="geometry" />
        </mxCell>
        <mxCell id="dL3HsRPYZFrrwmkvRTTQ-99" value="table_1_id | uuid NOT NULL" style="shape=partialRectangle;top=0;left=0;right=0;bottom=0;align=left;verticalAlign=top;fillColor=none;spacingLeft=54;spacingRight=4;overflow=hidden;rotatable=0;points=[[0,0.5],[1,0.5]];portConstraint=eastwest;dropTarget=0;fontSize=12;" parent="dL3HsRPYZFrrwmkvRTTQ-80" vertex="1">
          <mxGeometry y="160" width="400" height="26" as="geometry" />
        </mxCell>
        <mxCell id="dL3HsRPYZFrrwmkvRTTQ-100" value="FK" style="shape=partialRectangle;top=0;left=0;bottom=0;fillColor=none;align=center;verticalAlign=top;spacingLeft=4;spacingRight=4;overflow=hidden;rotatable=0;points=[];portConstraint=eastwest;part=1;fontSize=12;" parent="dL3HsRPYZFrrwmkvRTTQ-99" connectable="0" vertex="1">
          <mxGeometry width="50" height="26" as="geometry" />
        </mxCell>
        <mxCell id="dL3HsRPYZFrrwmkvRTTQ-107" value="table_2_id | uuid NOT NULL" style="shape=partialRectangle;top=0;left=0;right=0;bottom=0;align=left;verticalAlign=top;fillColor=none;spacingLeft=54;spacingRight=4;overflow=hidden;rotatable=0;points=[[0,0.5],[1,0.5]];portConstraint=eastwest;dropTarget=0;fontSize=12;" parent="dL3HsRPYZFrrwmkvRTTQ-80" vertex="1">
          <mxGeometry y="186" width="400" height="26" as="geometry" />
        </mxCell>
        <mxCell id="dL3HsRPYZFrrwmkvRTTQ-108" value="FK" style="shape=partialRectangle;top=0;left=0;bottom=0;fillColor=none;align=center;verticalAlign=top;spacingLeft=4;spacingRight=4;overflow=hidden;rotatable=0;points=[];portConstraint=eastwest;part=1;fontSize=12;" parent="dL3HsRPYZFrrwmkvRTTQ-107" connectable="0" vertex="1">
          <mxGeometry width="50" height="26" as="geometry" />
        </mxCell>
        <mxCell id="dL3HsRPYZFrrwmkvRTTQ-101" value="api_key_identifier" style="shape=partialRectangle;top=0;left=0;right=0;bottom=0;align=left;verticalAlign=top;fillColor=none;spacingLeft=54;spacingRight=4;overflow=hidden;rotatable=0;points=[[0,0.5],[1,0.5]];portConstraint=eastwest;dropTarget=0;fontSize=12;" parent="dL3HsRPYZFrrwmkvRTTQ-80" vertex="1">
          <mxGeometry y="212" width="400" height="26" as="geometry" />
        </mxCell>
        <mxCell id="dL3HsRPYZFrrwmkvRTTQ-102" value="API" style="shape=partialRectangle;top=0;left=0;bottom=0;fillColor=none;align=center;verticalAlign=top;spacingLeft=4;spacingRight=4;overflow=hidden;rotatable=0;points=[];portConstraint=eastwest;part=1;fontSize=12;" parent="dL3HsRPYZFrrwmkvRTTQ-101" connectable="0" vertex="1">
          <mxGeometry width="50" height="26" as="geometry" />
        </mxCell>
        <mxCell id="dL3HsRPYZFrrwmkvRTTQ-103" value="keycloak_key_identifier" style="shape=partialRectangle;top=0;left=0;right=0;bottom=0;align=left;verticalAlign=top;fillColor=none;spacingLeft=54;spacingRight=4;overflow=hidden;rotatable=0;points=[[0,0.5],[1,0.5]];portConstraint=eastwest;dropTarget=0;fontSize=12;" parent="dL3HsRPYZFrrwmkvRTTQ-80" vertex="1">
          <mxGeometry y="238" width="400" height="26" as="geometry" />
        </mxCell>
        <mxCell id="dL3HsRPYZFrrwmkvRTTQ-104" value="KC" style="shape=partialRectangle;top=0;left=0;bottom=0;fillColor=none;align=center;verticalAlign=top;spacingLeft=4;spacingRight=4;overflow=hidden;rotatable=0;points=[];portConstraint=eastwest;part=1;fontSize=12;" parent="dL3HsRPYZFrrwmkvRTTQ-103" connectable="0" vertex="1">
          <mxGeometry width="50" height="26" as="geometry" />
        </mxCell>
        <mxCell id="QZ302hEmAq9ygZxuVVmA-3" value="microservice_key_identifier" style="shape=partialRectangle;top=0;left=0;right=0;bottom=0;align=left;verticalAlign=top;fillColor=none;spacingLeft=54;spacingRight=4;overflow=hidden;rotatable=0;points=[[0,0.5],[1,0.5]];portConstraint=eastwest;dropTarget=0;fontSize=12;" parent="dL3HsRPYZFrrwmkvRTTQ-80" vertex="1">
          <mxGeometry y="264" width="400" height="26" as="geometry" />
        </mxCell>
        <mxCell id="QZ302hEmAq9ygZxuVVmA-4" value="MS" style="shape=partialRectangle;top=0;left=0;bottom=0;fillColor=none;align=center;verticalAlign=top;spacingLeft=4;spacingRight=4;overflow=hidden;rotatable=0;points=[];portConstraint=eastwest;part=1;fontSize=12;" parent="QZ302hEmAq9ygZxuVVmA-3" connectable="0" vertex="1">
          <mxGeometry width="50" height="26" as="geometry" />
        </mxCell>
        <mxCell id="dL3HsRPYZFrrwmkvRTTQ-105" value="" style="shape=partialRectangle;top=0;left=0;right=0;bottom=0;align=left;verticalAlign=top;fillColor=none;spacingLeft=54;spacingRight=4;overflow=hidden;rotatable=0;points=[[0,0.5],[1,0.5]];portConstraint=eastwest;dropTarget=0;fontSize=12;" parent="dL3HsRPYZFrrwmkvRTTQ-80" vertex="1">
          <mxGeometry y="290" width="400" height="10" as="geometry" />
        </mxCell>
        <mxCell id="dL3HsRPYZFrrwmkvRTTQ-106" value="" style="shape=partialRectangle;top=0;left=0;bottom=0;fillColor=none;align=center;verticalAlign=top;spacingLeft=4;spacingRight=4;overflow=hidden;rotatable=0;points=[];portConstraint=eastwest;part=1;fontSize=12;" parent="dL3HsRPYZFrrwmkvRTTQ-105" connectable="0" vertex="1">
          <mxGeometry width="50" height="10" as="geometry" />
        </mxCell>
      </root>
    </mxGraphModel>
  </diagram>
  <diagram name="Generic Microservice Users" id="xaGhTkqrAMSKEGvjBZEI">
    <mxGraphModel grid="1" page="1" gridSize="10" guides="1" tooltips="1" connect="1" arrows="1" fold="1" pageScale="1" pageWidth="827" pageHeight="1169" math="0" shadow="0">
      <root>
        <mxCell id="5_Z1TReD_J3Hb2p0v64i-0" />
        <mxCell id="5_Z1TReD_J3Hb2p0v64i-1" parent="5_Z1TReD_J3Hb2p0v64i-0" />
        <mxCell id="vKOQVbaM08LlKD5KZnxo-0" value="MSUSERS_PHONES" style="swimlane;fontStyle=0;childLayout=stackLayout;horizontal=1;startSize=26;fillColor=#008CFF;horizontalStack=0;resizeParent=1;resizeParentMax=0;resizeLast=0;collapsible=1;marginBottom=0;swimlaneFillColor=#ffffff;align=center;fontSize=14;strokeColor=#000000;gradientColor=none;strokeWidth=2;rounded=1;fontColor=#FFFFFF;" vertex="1" parent="5_Z1TReD_J3Hb2p0v64i-1">
          <mxGeometry x="40" y="-600" width="400" height="378" as="geometry" />
        </mxCell>
        <mxCell id="vKOQVbaM08LlKD5KZnxo-1" value="id | UUID NOT NULL" style="shape=partialRectangle;top=0;left=0;right=0;bottom=1;align=left;verticalAlign=middle;fillColor=none;spacingLeft=54;spacingRight=4;overflow=hidden;rotatable=0;points=[[0,0.5],[1,0.5]];portConstraint=eastwest;dropTarget=0;fontStyle=5;fontSize=12;" vertex="1" parent="vKOQVbaM08LlKD5KZnxo-0">
          <mxGeometry y="26" width="400" height="30" as="geometry" />
        </mxCell>
        <mxCell id="vKOQVbaM08LlKD5KZnxo-2" value="PK" style="shape=partialRectangle;top=0;left=0;bottom=0;fillColor=none;align=center;verticalAlign=middle;spacingLeft=4;spacingRight=4;overflow=hidden;rotatable=0;points=[];portConstraint=eastwest;part=1;fontSize=12;" connectable="0" vertex="1" parent="vKOQVbaM08LlKD5KZnxo-1">
          <mxGeometry width="50" height="30" as="geometry" />
        </mxCell>
        <mxCell id="vKOQVbaM08LlKD5KZnxo-3" value="created_at | timestamp NOT NULL" style="shape=partialRectangle;top=0;left=0;right=0;bottom=0;align=left;verticalAlign=top;fillColor=none;spacingLeft=54;spacingRight=4;overflow=hidden;rotatable=0;points=[[0,0.5],[1,0.5]];portConstraint=eastwest;dropTarget=0;fontSize=12;" vertex="1" parent="vKOQVbaM08LlKD5KZnxo-0">
          <mxGeometry y="56" width="400" height="26" as="geometry" />
        </mxCell>
        <mxCell id="vKOQVbaM08LlKD5KZnxo-4" value="" style="shape=partialRectangle;top=0;left=0;bottom=0;fillColor=none;align=left;verticalAlign=top;spacingLeft=4;spacingRight=4;overflow=hidden;rotatable=0;points=[];portConstraint=eastwest;part=1;fontSize=12;" connectable="0" vertex="1" parent="vKOQVbaM08LlKD5KZnxo-3">
          <mxGeometry width="50" height="26" as="geometry" />
        </mxCell>
        <mxCell id="vKOQVbaM08LlKD5KZnxo-5" value="updated_at | timestamp NOT NULL" style="shape=partialRectangle;top=0;left=0;right=0;bottom=0;align=left;verticalAlign=top;fillColor=none;spacingLeft=54;spacingRight=4;overflow=hidden;rotatable=0;points=[[0,0.5],[1,0.5]];portConstraint=eastwest;dropTarget=0;fontSize=12;" vertex="1" parent="vKOQVbaM08LlKD5KZnxo-0">
          <mxGeometry y="82" width="400" height="26" as="geometry" />
        </mxCell>
        <mxCell id="vKOQVbaM08LlKD5KZnxo-6" value="" style="shape=partialRectangle;top=0;left=0;bottom=0;fillColor=none;align=left;verticalAlign=top;spacingLeft=4;spacingRight=4;overflow=hidden;rotatable=0;points=[];portConstraint=eastwest;part=1;fontSize=12;" connectable="0" vertex="1" parent="vKOQVbaM08LlKD5KZnxo-5">
          <mxGeometry width="50" height="26" as="geometry" />
        </mxCell>
        <mxCell id="vKOQVbaM08LlKD5KZnxo-27" value="deleted | timestamp DEFAULT(null)" style="shape=partialRectangle;top=0;left=0;right=0;bottom=0;align=left;verticalAlign=top;fillColor=none;spacingLeft=54;spacingRight=4;overflow=hidden;rotatable=0;points=[[0,0.5],[1,0.5]];portConstraint=eastwest;dropTarget=0;fontSize=12;" vertex="1" parent="vKOQVbaM08LlKD5KZnxo-0">
          <mxGeometry y="108" width="400" height="26" as="geometry" />
        </mxCell>
        <mxCell id="vKOQVbaM08LlKD5KZnxo-28" value="" style="shape=partialRectangle;top=0;left=0;bottom=0;fillColor=none;align=left;verticalAlign=top;spacingLeft=4;spacingRight=4;overflow=hidden;rotatable=0;points=[];portConstraint=eastwest;part=1;fontSize=12;" connectable="0" vertex="1" parent="vKOQVbaM08LlKD5KZnxo-27">
          <mxGeometry width="50" height="26" as="geometry" />
        </mxCell>
        <mxCell id="vKOQVbaM08LlKD5KZnxo-7" value="deleted_at | timestamp DEFAULT(null)" style="shape=partialRectangle;top=0;left=0;right=0;bottom=0;align=left;verticalAlign=top;fillColor=none;spacingLeft=54;spacingRight=4;overflow=hidden;rotatable=0;points=[[0,0.5],[1,0.5]];portConstraint=eastwest;dropTarget=0;fontSize=12;" vertex="1" parent="vKOQVbaM08LlKD5KZnxo-0">
          <mxGeometry y="134" width="400" height="26" as="geometry" />
        </mxCell>
        <mxCell id="vKOQVbaM08LlKD5KZnxo-8" value="" style="shape=partialRectangle;top=0;left=0;bottom=0;fillColor=none;align=left;verticalAlign=top;spacingLeft=4;spacingRight=4;overflow=hidden;rotatable=0;points=[];portConstraint=eastwest;part=1;fontSize=12;" connectable="0" vertex="1" parent="vKOQVbaM08LlKD5KZnxo-7">
          <mxGeometry width="50" height="26" as="geometry" />
        </mxCell>
        <mxCell id="vKOQVbaM08LlKD5KZnxo-9" value="" style="shape=partialRectangle;top=0;left=0;right=0;bottom=0;align=left;verticalAlign=top;fillColor=none;spacingLeft=54;spacingRight=4;overflow=hidden;rotatable=0;points=[[0,0.5],[1,0.5]];portConstraint=eastwest;dropTarget=0;fontSize=12;" vertex="1" parent="vKOQVbaM08LlKD5KZnxo-0">
          <mxGeometry y="160" width="400" height="26" as="geometry" />
        </mxCell>
        <mxCell id="vKOQVbaM08LlKD5KZnxo-10" value="" style="shape=partialRectangle;top=0;left=0;bottom=0;fillColor=none;align=left;verticalAlign=top;spacingLeft=4;spacingRight=4;overflow=hidden;rotatable=0;points=[];portConstraint=eastwest;part=1;fontSize=12;" connectable="0" vertex="1" parent="vKOQVbaM08LlKD5KZnxo-9">
          <mxGeometry width="50" height="26" as="geometry" />
        </mxCell>
        <mxCell id="vKOQVbaM08LlKD5KZnxo-11" value="phone | varchar(14) NOT NULL" style="shape=partialRectangle;top=0;left=0;right=0;bottom=0;align=left;verticalAlign=top;fillColor=none;spacingLeft=54;spacingRight=4;overflow=hidden;rotatable=0;points=[[0,0.5],[1,0.5]];portConstraint=eastwest;dropTarget=0;fontSize=12;" vertex="1" parent="vKOQVbaM08LlKD5KZnxo-0">
          <mxGeometry y="186" width="400" height="26" as="geometry" />
        </mxCell>
        <mxCell id="vKOQVbaM08LlKD5KZnxo-12" value="" style="shape=partialRectangle;top=0;left=0;bottom=0;fillColor=none;align=left;verticalAlign=top;spacingLeft=4;spacingRight=4;overflow=hidden;rotatable=0;points=[];portConstraint=eastwest;part=1;fontSize=12;" connectable="0" vertex="1" parent="vKOQVbaM08LlKD5KZnxo-11">
          <mxGeometry width="50" height="26" as="geometry" />
        </mxCell>
        <mxCell id="vKOQVbaM08LlKD5KZnxo-13" value="verify_code | varchar(6)" style="shape=partialRectangle;top=0;left=0;right=0;bottom=0;align=left;verticalAlign=top;fillColor=none;spacingLeft=54;spacingRight=4;overflow=hidden;rotatable=0;points=[[0,0.5],[1,0.5]];portConstraint=eastwest;dropTarget=0;fontSize=12;" vertex="1" parent="vKOQVbaM08LlKD5KZnxo-0">
          <mxGeometry y="212" width="400" height="26" as="geometry" />
        </mxCell>
        <mxCell id="vKOQVbaM08LlKD5KZnxo-14" value="" style="shape=partialRectangle;top=0;left=0;bottom=0;fillColor=none;align=left;verticalAlign=top;spacingLeft=4;spacingRight=4;overflow=hidden;rotatable=0;points=[];portConstraint=eastwest;part=1;fontSize=12;" connectable="0" vertex="1" parent="vKOQVbaM08LlKD5KZnxo-13">
          <mxGeometry width="50" height="26" as="geometry" />
        </mxCell>
        <mxCell id="vKOQVbaM08LlKD5KZnxo-15" value="verify_code_expire_at | timestamp" style="shape=partialRectangle;top=0;left=0;right=0;bottom=0;align=left;verticalAlign=top;fillColor=none;spacingLeft=54;spacingRight=4;overflow=hidden;rotatable=0;points=[[0,0.5],[1,0.5]];portConstraint=eastwest;dropTarget=0;fontSize=12;" vertex="1" parent="vKOQVbaM08LlKD5KZnxo-0">
          <mxGeometry y="238" width="400" height="26" as="geometry" />
        </mxCell>
        <mxCell id="vKOQVbaM08LlKD5KZnxo-16" value="" style="shape=partialRectangle;top=0;left=0;bottom=0;fillColor=none;align=left;verticalAlign=top;spacingLeft=4;spacingRight=4;overflow=hidden;rotatable=0;points=[];portConstraint=eastwest;part=1;fontSize=12;" connectable="0" vertex="1" parent="vKOQVbaM08LlKD5KZnxo-15">
          <mxGeometry width="50" height="26" as="geometry" />
        </mxCell>
        <mxCell id="vKOQVbaM08LlKD5KZnxo-17" value="verified | boolean NOT NULL DEFAULT(false)" style="shape=partialRectangle;top=0;left=0;right=0;bottom=0;align=left;verticalAlign=top;fillColor=none;spacingLeft=54;spacingRight=4;overflow=hidden;rotatable=0;points=[[0,0.5],[1,0.5]];portConstraint=eastwest;dropTarget=0;fontSize=12;" vertex="1" parent="vKOQVbaM08LlKD5KZnxo-0">
          <mxGeometry y="264" width="400" height="26" as="geometry" />
        </mxCell>
        <mxCell id="vKOQVbaM08LlKD5KZnxo-18" value="" style="shape=partialRectangle;top=0;left=0;bottom=0;fillColor=none;align=left;verticalAlign=top;spacingLeft=4;spacingRight=4;overflow=hidden;rotatable=0;points=[];portConstraint=eastwest;part=1;fontSize=12;" connectable="0" vertex="1" parent="vKOQVbaM08LlKD5KZnxo-17">
          <mxGeometry width="50" height="26" as="geometry" />
        </mxCell>
        <mxCell id="vKOQVbaM08LlKD5KZnxo-19" value="verified_at | timestamp DEFAULT(null)" style="shape=partialRectangle;top=0;left=0;right=0;bottom=0;align=left;verticalAlign=top;fillColor=none;spacingLeft=54;spacingRight=4;overflow=hidden;rotatable=0;points=[[0,0.5],[1,0.5]];portConstraint=eastwest;dropTarget=0;fontSize=12;" vertex="1" parent="vKOQVbaM08LlKD5KZnxo-0">
          <mxGeometry y="290" width="400" height="26" as="geometry" />
        </mxCell>
        <mxCell id="vKOQVbaM08LlKD5KZnxo-20" value="" style="shape=partialRectangle;top=0;left=0;bottom=0;fillColor=none;align=left;verticalAlign=top;spacingLeft=4;spacingRight=4;overflow=hidden;rotatable=0;points=[];portConstraint=eastwest;part=1;fontSize=12;" connectable="0" vertex="1" parent="vKOQVbaM08LlKD5KZnxo-19">
          <mxGeometry width="50" height="26" as="geometry" />
        </mxCell>
        <mxCell id="vKOQVbaM08LlKD5KZnxo-21" value="" style="shape=partialRectangle;top=0;left=0;right=0;bottom=0;align=left;verticalAlign=top;fillColor=none;spacingLeft=54;spacingRight=4;overflow=hidden;rotatable=0;points=[[0,0.5],[1,0.5]];portConstraint=eastwest;dropTarget=0;fontSize=12;" vertex="1" parent="vKOQVbaM08LlKD5KZnxo-0">
          <mxGeometry y="316" width="400" height="26" as="geometry" />
        </mxCell>
        <mxCell id="vKOQVbaM08LlKD5KZnxo-22" value="" style="shape=partialRectangle;top=0;left=0;bottom=0;fillColor=none;align=left;verticalAlign=top;spacingLeft=4;spacingRight=4;overflow=hidden;rotatable=0;points=[];portConstraint=eastwest;part=1;fontSize=12;" connectable="0" vertex="1" parent="vKOQVbaM08LlKD5KZnxo-21">
          <mxGeometry width="50" height="26" as="geometry" />
        </mxCell>
        <mxCell id="vKOQVbaM08LlKD5KZnxo-23" value="account_id" style="shape=partialRectangle;top=0;left=0;right=0;bottom=0;align=left;verticalAlign=top;fillColor=none;spacingLeft=54;spacingRight=4;overflow=hidden;rotatable=0;points=[[0,0.5],[1,0.5]];portConstraint=eastwest;dropTarget=0;fontSize=12;" vertex="1" parent="vKOQVbaM08LlKD5KZnxo-0">
          <mxGeometry y="342" width="400" height="26" as="geometry" />
        </mxCell>
        <mxCell id="vKOQVbaM08LlKD5KZnxo-24" value="FK" style="shape=partialRectangle;top=0;left=0;bottom=0;fillColor=none;align=center;verticalAlign=top;spacingLeft=4;spacingRight=4;overflow=hidden;rotatable=0;points=[];portConstraint=eastwest;part=1;fontSize=12;" connectable="0" vertex="1" parent="vKOQVbaM08LlKD5KZnxo-23">
          <mxGeometry width="50" height="26" as="geometry" />
        </mxCell>
        <mxCell id="vKOQVbaM08LlKD5KZnxo-25" value="" style="shape=partialRectangle;top=0;left=0;right=0;bottom=0;align=left;verticalAlign=top;fillColor=none;spacingLeft=54;spacingRight=4;overflow=hidden;rotatable=0;points=[[0,0.5],[1,0.5]];portConstraint=eastwest;dropTarget=0;fontSize=12;" vertex="1" parent="vKOQVbaM08LlKD5KZnxo-0">
          <mxGeometry y="368" width="400" height="10" as="geometry" />
        </mxCell>
        <mxCell id="vKOQVbaM08LlKD5KZnxo-26" value="" style="shape=partialRectangle;top=0;left=0;bottom=0;fillColor=none;align=left;verticalAlign=top;spacingLeft=4;spacingRight=4;overflow=hidden;rotatable=0;points=[];portConstraint=eastwest;part=1;fontSize=12;" connectable="0" vertex="1" parent="vKOQVbaM08LlKD5KZnxo-25">
          <mxGeometry width="50" height="10" as="geometry" />
        </mxCell>
        <mxCell id="vKOQVbaM08LlKD5KZnxo-29" value="MSUSERS_EMAILS" style="swimlane;fontStyle=0;childLayout=stackLayout;horizontal=1;startSize=26;fillColor=#008CFF;horizontalStack=0;resizeParent=1;resizeParentMax=0;resizeLast=0;collapsible=1;marginBottom=0;swimlaneFillColor=#ffffff;align=center;fontSize=14;strokeColor=#000000;gradientColor=none;strokeWidth=2;rounded=1;fontColor=#FFFFFF;" vertex="1" parent="5_Z1TReD_J3Hb2p0v64i-1">
          <mxGeometry x="640" y="-626" width="400" height="404" as="geometry" />
        </mxCell>
        <mxCell id="vKOQVbaM08LlKD5KZnxo-30" value="id | UUID NOT NULL" style="shape=partialRectangle;top=0;left=0;right=0;bottom=1;align=left;verticalAlign=middle;fillColor=none;spacingLeft=54;spacingRight=4;overflow=hidden;rotatable=0;points=[[0,0.5],[1,0.5]];portConstraint=eastwest;dropTarget=0;fontStyle=5;fontSize=12;" vertex="1" parent="vKOQVbaM08LlKD5KZnxo-29">
          <mxGeometry y="26" width="400" height="30" as="geometry" />
        </mxCell>
        <mxCell id="vKOQVbaM08LlKD5KZnxo-31" value="PK" style="shape=partialRectangle;top=0;left=0;bottom=0;fillColor=none;align=center;verticalAlign=middle;spacingLeft=4;spacingRight=4;overflow=hidden;rotatable=0;points=[];portConstraint=eastwest;part=1;fontSize=12;" connectable="0" vertex="1" parent="vKOQVbaM08LlKD5KZnxo-30">
          <mxGeometry width="50" height="30" as="geometry" />
        </mxCell>
        <mxCell id="vKOQVbaM08LlKD5KZnxo-32" value="created_at | timestamp NOT NULL" style="shape=partialRectangle;top=0;left=0;right=0;bottom=0;align=left;verticalAlign=top;fillColor=none;spacingLeft=54;spacingRight=4;overflow=hidden;rotatable=0;points=[[0,0.5],[1,0.5]];portConstraint=eastwest;dropTarget=0;fontSize=12;" vertex="1" parent="vKOQVbaM08LlKD5KZnxo-29">
          <mxGeometry y="56" width="400" height="26" as="geometry" />
        </mxCell>
        <mxCell id="vKOQVbaM08LlKD5KZnxo-33" value="" style="shape=partialRectangle;top=0;left=0;bottom=0;fillColor=none;align=left;verticalAlign=top;spacingLeft=4;spacingRight=4;overflow=hidden;rotatable=0;points=[];portConstraint=eastwest;part=1;fontSize=12;" connectable="0" vertex="1" parent="vKOQVbaM08LlKD5KZnxo-32">
          <mxGeometry width="50" height="26" as="geometry" />
        </mxCell>
        <mxCell id="vKOQVbaM08LlKD5KZnxo-34" value="updated_at | timestamp NOT NULL" style="shape=partialRectangle;top=0;left=0;right=0;bottom=0;align=left;verticalAlign=top;fillColor=none;spacingLeft=54;spacingRight=4;overflow=hidden;rotatable=0;points=[[0,0.5],[1,0.5]];portConstraint=eastwest;dropTarget=0;fontSize=12;" vertex="1" parent="vKOQVbaM08LlKD5KZnxo-29">
          <mxGeometry y="82" width="400" height="26" as="geometry" />
        </mxCell>
        <mxCell id="vKOQVbaM08LlKD5KZnxo-35" value="" style="shape=partialRectangle;top=0;left=0;bottom=0;fillColor=none;align=left;verticalAlign=top;spacingLeft=4;spacingRight=4;overflow=hidden;rotatable=0;points=[];portConstraint=eastwest;part=1;fontSize=12;" connectable="0" vertex="1" parent="vKOQVbaM08LlKD5KZnxo-34">
          <mxGeometry width="50" height="26" as="geometry" />
        </mxCell>
        <mxCell id="vKOQVbaM08LlKD5KZnxo-36" value="deleted | timestamp DEFAULT(null)" style="shape=partialRectangle;top=0;left=0;right=0;bottom=0;align=left;verticalAlign=top;fillColor=none;spacingLeft=54;spacingRight=4;overflow=hidden;rotatable=0;points=[[0,0.5],[1,0.5]];portConstraint=eastwest;dropTarget=0;fontSize=12;" vertex="1" parent="vKOQVbaM08LlKD5KZnxo-29">
          <mxGeometry y="108" width="400" height="26" as="geometry" />
        </mxCell>
        <mxCell id="vKOQVbaM08LlKD5KZnxo-37" value="" style="shape=partialRectangle;top=0;left=0;bottom=0;fillColor=none;align=left;verticalAlign=top;spacingLeft=4;spacingRight=4;overflow=hidden;rotatable=0;points=[];portConstraint=eastwest;part=1;fontSize=12;" connectable="0" vertex="1" parent="vKOQVbaM08LlKD5KZnxo-36">
          <mxGeometry width="50" height="26" as="geometry" />
        </mxCell>
        <mxCell id="vKOQVbaM08LlKD5KZnxo-38" value="deleted_at | timestamp DEFAULT(null)" style="shape=partialRectangle;top=0;left=0;right=0;bottom=0;align=left;verticalAlign=top;fillColor=none;spacingLeft=54;spacingRight=4;overflow=hidden;rotatable=0;points=[[0,0.5],[1,0.5]];portConstraint=eastwest;dropTarget=0;fontSize=12;" vertex="1" parent="vKOQVbaM08LlKD5KZnxo-29">
          <mxGeometry y="134" width="400" height="26" as="geometry" />
        </mxCell>
        <mxCell id="vKOQVbaM08LlKD5KZnxo-39" value="" style="shape=partialRectangle;top=0;left=0;bottom=0;fillColor=none;align=left;verticalAlign=top;spacingLeft=4;spacingRight=4;overflow=hidden;rotatable=0;points=[];portConstraint=eastwest;part=1;fontSize=12;" connectable="0" vertex="1" parent="vKOQVbaM08LlKD5KZnxo-38">
          <mxGeometry width="50" height="26" as="geometry" />
        </mxCell>
        <mxCell id="vKOQVbaM08LlKD5KZnxo-40" value="" style="shape=partialRectangle;top=0;left=0;right=0;bottom=0;align=left;verticalAlign=top;fillColor=none;spacingLeft=54;spacingRight=4;overflow=hidden;rotatable=0;points=[[0,0.5],[1,0.5]];portConstraint=eastwest;dropTarget=0;fontSize=12;" vertex="1" parent="vKOQVbaM08LlKD5KZnxo-29">
          <mxGeometry y="160" width="400" height="26" as="geometry" />
        </mxCell>
        <mxCell id="vKOQVbaM08LlKD5KZnxo-41" value="" style="shape=partialRectangle;top=0;left=0;bottom=0;fillColor=none;align=left;verticalAlign=top;spacingLeft=4;spacingRight=4;overflow=hidden;rotatable=0;points=[];portConstraint=eastwest;part=1;fontSize=12;" connectable="0" vertex="1" parent="vKOQVbaM08LlKD5KZnxo-40">
          <mxGeometry width="50" height="26" as="geometry" />
        </mxCell>
        <mxCell id="vKOQVbaM08LlKD5KZnxo-42" value="email | [unique] varchar(255) NOT NULL" style="shape=partialRectangle;top=0;left=0;right=0;bottom=0;align=left;verticalAlign=top;fillColor=none;spacingLeft=54;spacingRight=4;overflow=hidden;rotatable=0;points=[[0,0.5],[1,0.5]];portConstraint=eastwest;dropTarget=0;fontSize=12;" vertex="1" parent="vKOQVbaM08LlKD5KZnxo-29">
          <mxGeometry y="186" width="400" height="26" as="geometry" />
        </mxCell>
        <mxCell id="vKOQVbaM08LlKD5KZnxo-43" value="" style="shape=partialRectangle;top=0;left=0;bottom=0;fillColor=none;align=left;verticalAlign=top;spacingLeft=4;spacingRight=4;overflow=hidden;rotatable=0;points=[];portConstraint=eastwest;part=1;fontSize=12;" connectable="0" vertex="1" parent="vKOQVbaM08LlKD5KZnxo-42">
          <mxGeometry width="50" height="26" as="geometry" />
        </mxCell>
        <mxCell id="vKOQVbaM08LlKD5KZnxo-185" value="principal | boolean NOT NULL DEFAULT(false)" style="shape=partialRectangle;top=0;left=0;right=0;bottom=0;align=left;verticalAlign=top;fillColor=none;spacingLeft=54;spacingRight=4;overflow=hidden;rotatable=0;points=[[0,0.5],[1,0.5]];portConstraint=eastwest;dropTarget=0;fontSize=12;" vertex="1" parent="vKOQVbaM08LlKD5KZnxo-29">
          <mxGeometry y="212" width="400" height="26" as="geometry" />
        </mxCell>
        <mxCell id="vKOQVbaM08LlKD5KZnxo-186" value="" style="shape=partialRectangle;top=0;left=0;bottom=0;fillColor=none;align=left;verticalAlign=top;spacingLeft=4;spacingRight=4;overflow=hidden;rotatable=0;points=[];portConstraint=eastwest;part=1;fontSize=12;" connectable="0" vertex="1" parent="vKOQVbaM08LlKD5KZnxo-185">
          <mxGeometry width="50" height="26" as="geometry" />
        </mxCell>
        <mxCell id="vKOQVbaM08LlKD5KZnxo-44" value="verify_code | varchar(6)" style="shape=partialRectangle;top=0;left=0;right=0;bottom=0;align=left;verticalAlign=top;fillColor=none;spacingLeft=54;spacingRight=4;overflow=hidden;rotatable=0;points=[[0,0.5],[1,0.5]];portConstraint=eastwest;dropTarget=0;fontSize=12;" vertex="1" parent="vKOQVbaM08LlKD5KZnxo-29">
          <mxGeometry y="238" width="400" height="26" as="geometry" />
        </mxCell>
        <mxCell id="vKOQVbaM08LlKD5KZnxo-45" value="" style="shape=partialRectangle;top=0;left=0;bottom=0;fillColor=none;align=left;verticalAlign=top;spacingLeft=4;spacingRight=4;overflow=hidden;rotatable=0;points=[];portConstraint=eastwest;part=1;fontSize=12;" connectable="0" vertex="1" parent="vKOQVbaM08LlKD5KZnxo-44">
          <mxGeometry width="50" height="26" as="geometry" />
        </mxCell>
        <mxCell id="vKOQVbaM08LlKD5KZnxo-46" value="verify_code_expire_at | timestamp" style="shape=partialRectangle;top=0;left=0;right=0;bottom=0;align=left;verticalAlign=top;fillColor=none;spacingLeft=54;spacingRight=4;overflow=hidden;rotatable=0;points=[[0,0.5],[1,0.5]];portConstraint=eastwest;dropTarget=0;fontSize=12;" vertex="1" parent="vKOQVbaM08LlKD5KZnxo-29">
          <mxGeometry y="264" width="400" height="26" as="geometry" />
        </mxCell>
        <mxCell id="vKOQVbaM08LlKD5KZnxo-47" value="" style="shape=partialRectangle;top=0;left=0;bottom=0;fillColor=none;align=left;verticalAlign=top;spacingLeft=4;spacingRight=4;overflow=hidden;rotatable=0;points=[];portConstraint=eastwest;part=1;fontSize=12;" connectable="0" vertex="1" parent="vKOQVbaM08LlKD5KZnxo-46">
          <mxGeometry width="50" height="26" as="geometry" />
        </mxCell>
        <mxCell id="vKOQVbaM08LlKD5KZnxo-48" value="verified | boolean NOT NULL DEFAULT(false)" style="shape=partialRectangle;top=0;left=0;right=0;bottom=0;align=left;verticalAlign=top;fillColor=none;spacingLeft=54;spacingRight=4;overflow=hidden;rotatable=0;points=[[0,0.5],[1,0.5]];portConstraint=eastwest;dropTarget=0;fontSize=12;" vertex="1" parent="vKOQVbaM08LlKD5KZnxo-29">
          <mxGeometry y="290" width="400" height="26" as="geometry" />
        </mxCell>
        <mxCell id="vKOQVbaM08LlKD5KZnxo-49" value="" style="shape=partialRectangle;top=0;left=0;bottom=0;fillColor=none;align=left;verticalAlign=top;spacingLeft=4;spacingRight=4;overflow=hidden;rotatable=0;points=[];portConstraint=eastwest;part=1;fontSize=12;" connectable="0" vertex="1" parent="vKOQVbaM08LlKD5KZnxo-48">
          <mxGeometry width="50" height="26" as="geometry" />
        </mxCell>
        <mxCell id="vKOQVbaM08LlKD5KZnxo-50" value="verified_at | timestamp DEFAULT(null)" style="shape=partialRectangle;top=0;left=0;right=0;bottom=0;align=left;verticalAlign=top;fillColor=none;spacingLeft=54;spacingRight=4;overflow=hidden;rotatable=0;points=[[0,0.5],[1,0.5]];portConstraint=eastwest;dropTarget=0;fontSize=12;" vertex="1" parent="vKOQVbaM08LlKD5KZnxo-29">
          <mxGeometry y="316" width="400" height="26" as="geometry" />
        </mxCell>
        <mxCell id="vKOQVbaM08LlKD5KZnxo-51" value="" style="shape=partialRectangle;top=0;left=0;bottom=0;fillColor=none;align=left;verticalAlign=top;spacingLeft=4;spacingRight=4;overflow=hidden;rotatable=0;points=[];portConstraint=eastwest;part=1;fontSize=12;" connectable="0" vertex="1" parent="vKOQVbaM08LlKD5KZnxo-50">
          <mxGeometry width="50" height="26" as="geometry" />
        </mxCell>
        <mxCell id="vKOQVbaM08LlKD5KZnxo-52" value="" style="shape=partialRectangle;top=0;left=0;right=0;bottom=0;align=left;verticalAlign=top;fillColor=none;spacingLeft=54;spacingRight=4;overflow=hidden;rotatable=0;points=[[0,0.5],[1,0.5]];portConstraint=eastwest;dropTarget=0;fontSize=12;" vertex="1" parent="vKOQVbaM08LlKD5KZnxo-29">
          <mxGeometry y="342" width="400" height="26" as="geometry" />
        </mxCell>
        <mxCell id="vKOQVbaM08LlKD5KZnxo-53" value="" style="shape=partialRectangle;top=0;left=0;bottom=0;fillColor=none;align=left;verticalAlign=top;spacingLeft=4;spacingRight=4;overflow=hidden;rotatable=0;points=[];portConstraint=eastwest;part=1;fontSize=12;" connectable="0" vertex="1" parent="vKOQVbaM08LlKD5KZnxo-52">
          <mxGeometry width="50" height="26" as="geometry" />
        </mxCell>
        <mxCell id="vKOQVbaM08LlKD5KZnxo-54" value="account_id" style="shape=partialRectangle;top=0;left=0;right=0;bottom=0;align=left;verticalAlign=top;fillColor=none;spacingLeft=54;spacingRight=4;overflow=hidden;rotatable=0;points=[[0,0.5],[1,0.5]];portConstraint=eastwest;dropTarget=0;fontSize=12;" vertex="1" parent="vKOQVbaM08LlKD5KZnxo-29">
          <mxGeometry y="368" width="400" height="26" as="geometry" />
        </mxCell>
        <mxCell id="vKOQVbaM08LlKD5KZnxo-55" value="FK" style="shape=partialRectangle;top=0;left=0;bottom=0;fillColor=none;align=center;verticalAlign=top;spacingLeft=4;spacingRight=4;overflow=hidden;rotatable=0;points=[];portConstraint=eastwest;part=1;fontSize=12;" connectable="0" vertex="1" parent="vKOQVbaM08LlKD5KZnxo-54">
          <mxGeometry width="50" height="26" as="geometry" />
        </mxCell>
        <mxCell id="vKOQVbaM08LlKD5KZnxo-56" value="" style="shape=partialRectangle;top=0;left=0;right=0;bottom=0;align=left;verticalAlign=top;fillColor=none;spacingLeft=54;spacingRight=4;overflow=hidden;rotatable=0;points=[[0,0.5],[1,0.5]];portConstraint=eastwest;dropTarget=0;fontSize=12;" vertex="1" parent="vKOQVbaM08LlKD5KZnxo-29">
          <mxGeometry y="394" width="400" height="10" as="geometry" />
        </mxCell>
        <mxCell id="vKOQVbaM08LlKD5KZnxo-57" value="" style="shape=partialRectangle;top=0;left=0;bottom=0;fillColor=none;align=left;verticalAlign=top;spacingLeft=4;spacingRight=4;overflow=hidden;rotatable=0;points=[];portConstraint=eastwest;part=1;fontSize=12;" connectable="0" vertex="1" parent="vKOQVbaM08LlKD5KZnxo-56">
          <mxGeometry width="50" height="10" as="geometry" />
        </mxCell>
        <mxCell id="vKOQVbaM08LlKD5KZnxo-76" value="MSUSERS_ADRESSES" style="swimlane;fontStyle=0;childLayout=stackLayout;horizontal=1;startSize=26;fillColor=#008CFF;horizontalStack=0;resizeParent=1;resizeParentMax=0;resizeLast=0;collapsible=1;marginBottom=0;swimlaneFillColor=#ffffff;align=center;fontSize=14;strokeColor=#000000;gradientColor=none;strokeWidth=2;rounded=1;fontColor=#FFFFFF;" vertex="1" parent="5_Z1TReD_J3Hb2p0v64i-1">
          <mxGeometry x="40" y="-1120" width="400" height="456" as="geometry" />
        </mxCell>
        <mxCell id="vKOQVbaM08LlKD5KZnxo-77" value="id | UUID NOT NULL" style="shape=partialRectangle;top=0;left=0;right=0;bottom=1;align=left;verticalAlign=middle;fillColor=none;spacingLeft=54;spacingRight=4;overflow=hidden;rotatable=0;points=[[0,0.5],[1,0.5]];portConstraint=eastwest;dropTarget=0;fontStyle=5;fontSize=12;" vertex="1" parent="vKOQVbaM08LlKD5KZnxo-76">
          <mxGeometry y="26" width="400" height="30" as="geometry" />
        </mxCell>
        <mxCell id="vKOQVbaM08LlKD5KZnxo-78" value="PK" style="shape=partialRectangle;top=0;left=0;bottom=0;fillColor=none;align=center;verticalAlign=middle;spacingLeft=4;spacingRight=4;overflow=hidden;rotatable=0;points=[];portConstraint=eastwest;part=1;fontSize=12;" connectable="0" vertex="1" parent="vKOQVbaM08LlKD5KZnxo-77">
          <mxGeometry width="50" height="30" as="geometry" />
        </mxCell>
        <mxCell id="vKOQVbaM08LlKD5KZnxo-79" value="created_at | timestamp NOT NULL" style="shape=partialRectangle;top=0;left=0;right=0;bottom=0;align=left;verticalAlign=top;fillColor=none;spacingLeft=54;spacingRight=4;overflow=hidden;rotatable=0;points=[[0,0.5],[1,0.5]];portConstraint=eastwest;dropTarget=0;fontSize=12;" vertex="1" parent="vKOQVbaM08LlKD5KZnxo-76">
          <mxGeometry y="56" width="400" height="26" as="geometry" />
        </mxCell>
        <mxCell id="vKOQVbaM08LlKD5KZnxo-80" value="" style="shape=partialRectangle;top=0;left=0;bottom=0;fillColor=none;align=left;verticalAlign=top;spacingLeft=4;spacingRight=4;overflow=hidden;rotatable=0;points=[];portConstraint=eastwest;part=1;fontSize=12;" connectable="0" vertex="1" parent="vKOQVbaM08LlKD5KZnxo-79">
          <mxGeometry width="50" height="26" as="geometry" />
        </mxCell>
        <mxCell id="vKOQVbaM08LlKD5KZnxo-81" value="updated_at | timestamp NOT NULL" style="shape=partialRectangle;top=0;left=0;right=0;bottom=0;align=left;verticalAlign=top;fillColor=none;spacingLeft=54;spacingRight=4;overflow=hidden;rotatable=0;points=[[0,0.5],[1,0.5]];portConstraint=eastwest;dropTarget=0;fontSize=12;" vertex="1" parent="vKOQVbaM08LlKD5KZnxo-76">
          <mxGeometry y="82" width="400" height="26" as="geometry" />
        </mxCell>
        <mxCell id="vKOQVbaM08LlKD5KZnxo-82" value="" style="shape=partialRectangle;top=0;left=0;bottom=0;fillColor=none;align=left;verticalAlign=top;spacingLeft=4;spacingRight=4;overflow=hidden;rotatable=0;points=[];portConstraint=eastwest;part=1;fontSize=12;" connectable="0" vertex="1" parent="vKOQVbaM08LlKD5KZnxo-81">
          <mxGeometry width="50" height="26" as="geometry" />
        </mxCell>
        <mxCell id="vKOQVbaM08LlKD5KZnxo-83" value="deleted | timestamp DEFAULT(null)" style="shape=partialRectangle;top=0;left=0;right=0;bottom=0;align=left;verticalAlign=top;fillColor=none;spacingLeft=54;spacingRight=4;overflow=hidden;rotatable=0;points=[[0,0.5],[1,0.5]];portConstraint=eastwest;dropTarget=0;fontSize=12;" vertex="1" parent="vKOQVbaM08LlKD5KZnxo-76">
          <mxGeometry y="108" width="400" height="26" as="geometry" />
        </mxCell>
        <mxCell id="vKOQVbaM08LlKD5KZnxo-84" value="" style="shape=partialRectangle;top=0;left=0;bottom=0;fillColor=none;align=left;verticalAlign=top;spacingLeft=4;spacingRight=4;overflow=hidden;rotatable=0;points=[];portConstraint=eastwest;part=1;fontSize=12;" connectable="0" vertex="1" parent="vKOQVbaM08LlKD5KZnxo-83">
          <mxGeometry width="50" height="26" as="geometry" />
        </mxCell>
        <mxCell id="vKOQVbaM08LlKD5KZnxo-85" value="deleted_at | timestamp DEFAULT(null)" style="shape=partialRectangle;top=0;left=0;right=0;bottom=0;align=left;verticalAlign=top;fillColor=none;spacingLeft=54;spacingRight=4;overflow=hidden;rotatable=0;points=[[0,0.5],[1,0.5]];portConstraint=eastwest;dropTarget=0;fontSize=12;" vertex="1" parent="vKOQVbaM08LlKD5KZnxo-76">
          <mxGeometry y="134" width="400" height="26" as="geometry" />
        </mxCell>
        <mxCell id="vKOQVbaM08LlKD5KZnxo-86" value="" style="shape=partialRectangle;top=0;left=0;bottom=0;fillColor=none;align=left;verticalAlign=top;spacingLeft=4;spacingRight=4;overflow=hidden;rotatable=0;points=[];portConstraint=eastwest;part=1;fontSize=12;" connectable="0" vertex="1" parent="vKOQVbaM08LlKD5KZnxo-85">
          <mxGeometry width="50" height="26" as="geometry" />
        </mxCell>
        <mxCell id="vKOQVbaM08LlKD5KZnxo-87" value="" style="shape=partialRectangle;top=0;left=0;right=0;bottom=0;align=left;verticalAlign=top;fillColor=none;spacingLeft=54;spacingRight=4;overflow=hidden;rotatable=0;points=[[0,0.5],[1,0.5]];portConstraint=eastwest;dropTarget=0;fontSize=12;" vertex="1" parent="vKOQVbaM08LlKD5KZnxo-76">
          <mxGeometry y="160" width="400" height="26" as="geometry" />
        </mxCell>
        <mxCell id="vKOQVbaM08LlKD5KZnxo-88" value="" style="shape=partialRectangle;top=0;left=0;bottom=0;fillColor=none;align=left;verticalAlign=top;spacingLeft=4;spacingRight=4;overflow=hidden;rotatable=0;points=[];portConstraint=eastwest;part=1;fontSize=12;" connectable="0" vertex="1" parent="vKOQVbaM08LlKD5KZnxo-87">
          <mxGeometry width="50" height="26" as="geometry" />
        </mxCell>
        <mxCell id="vKOQVbaM08LlKD5KZnxo-119" value="country | varchar(255) NOT NULL" style="shape=partialRectangle;top=0;left=0;right=0;bottom=0;align=left;verticalAlign=top;fillColor=none;spacingLeft=54;spacingRight=4;overflow=hidden;rotatable=0;points=[[0,0.5],[1,0.5]];portConstraint=eastwest;dropTarget=0;fontSize=12;" vertex="1" parent="vKOQVbaM08LlKD5KZnxo-76">
          <mxGeometry y="186" width="400" height="26" as="geometry" />
        </mxCell>
        <mxCell id="vKOQVbaM08LlKD5KZnxo-120" value="" style="shape=partialRectangle;top=0;left=0;bottom=0;fillColor=none;align=left;verticalAlign=top;spacingLeft=4;spacingRight=4;overflow=hidden;rotatable=0;points=[];portConstraint=eastwest;part=1;fontSize=12;" connectable="0" vertex="1" parent="vKOQVbaM08LlKD5KZnxo-119">
          <mxGeometry width="50" height="26" as="geometry" />
        </mxCell>
        <mxCell id="vKOQVbaM08LlKD5KZnxo-117" value="zipcode | varchar(255) NOT NULL" style="shape=partialRectangle;top=0;left=0;right=0;bottom=0;align=left;verticalAlign=top;fillColor=none;spacingLeft=54;spacingRight=4;overflow=hidden;rotatable=0;points=[[0,0.5],[1,0.5]];portConstraint=eastwest;dropTarget=0;fontSize=12;" vertex="1" parent="vKOQVbaM08LlKD5KZnxo-76">
          <mxGeometry y="212" width="400" height="26" as="geometry" />
        </mxCell>
        <mxCell id="vKOQVbaM08LlKD5KZnxo-118" value="" style="shape=partialRectangle;top=0;left=0;bottom=0;fillColor=none;align=left;verticalAlign=top;spacingLeft=4;spacingRight=4;overflow=hidden;rotatable=0;points=[];portConstraint=eastwest;part=1;fontSize=12;" connectable="0" vertex="1" parent="vKOQVbaM08LlKD5KZnxo-117">
          <mxGeometry width="50" height="26" as="geometry" />
        </mxCell>
        <mxCell id="vKOQVbaM08LlKD5KZnxo-115" value="complement | varchar(255) NOT NULL" style="shape=partialRectangle;top=0;left=0;right=0;bottom=0;align=left;verticalAlign=top;fillColor=none;spacingLeft=54;spacingRight=4;overflow=hidden;rotatable=0;points=[[0,0.5],[1,0.5]];portConstraint=eastwest;dropTarget=0;fontSize=12;" vertex="1" parent="vKOQVbaM08LlKD5KZnxo-76">
          <mxGeometry y="238" width="400" height="26" as="geometry" />
        </mxCell>
        <mxCell id="vKOQVbaM08LlKD5KZnxo-116" value="" style="shape=partialRectangle;top=0;left=0;bottom=0;fillColor=none;align=left;verticalAlign=top;spacingLeft=4;spacingRight=4;overflow=hidden;rotatable=0;points=[];portConstraint=eastwest;part=1;fontSize=12;" connectable="0" vertex="1" parent="vKOQVbaM08LlKD5KZnxo-115">
          <mxGeometry width="50" height="26" as="geometry" />
        </mxCell>
        <mxCell id="vKOQVbaM08LlKD5KZnxo-113" value="state | varchar(255) NOT NULL" style="shape=partialRectangle;top=0;left=0;right=0;bottom=0;align=left;verticalAlign=top;fillColor=none;spacingLeft=54;spacingRight=4;overflow=hidden;rotatable=0;points=[[0,0.5],[1,0.5]];portConstraint=eastwest;dropTarget=0;fontSize=12;" vertex="1" parent="vKOQVbaM08LlKD5KZnxo-76">
          <mxGeometry y="264" width="400" height="26" as="geometry" />
        </mxCell>
        <mxCell id="vKOQVbaM08LlKD5KZnxo-114" value="" style="shape=partialRectangle;top=0;left=0;bottom=0;fillColor=none;align=left;verticalAlign=top;spacingLeft=4;spacingRight=4;overflow=hidden;rotatable=0;points=[];portConstraint=eastwest;part=1;fontSize=12;" connectable="0" vertex="1" parent="vKOQVbaM08LlKD5KZnxo-113">
          <mxGeometry width="50" height="26" as="geometry" />
        </mxCell>
        <mxCell id="vKOQVbaM08LlKD5KZnxo-111" value="city | varchar(255) NOT NULL" style="shape=partialRectangle;top=0;left=0;right=0;bottom=0;align=left;verticalAlign=top;fillColor=none;spacingLeft=54;spacingRight=4;overflow=hidden;rotatable=0;points=[[0,0.5],[1,0.5]];portConstraint=eastwest;dropTarget=0;fontSize=12;" vertex="1" parent="vKOQVbaM08LlKD5KZnxo-76">
          <mxGeometry y="290" width="400" height="26" as="geometry" />
        </mxCell>
        <mxCell id="vKOQVbaM08LlKD5KZnxo-112" value="" style="shape=partialRectangle;top=0;left=0;bottom=0;fillColor=none;align=left;verticalAlign=top;spacingLeft=4;spacingRight=4;overflow=hidden;rotatable=0;points=[];portConstraint=eastwest;part=1;fontSize=12;" connectable="0" vertex="1" parent="vKOQVbaM08LlKD5KZnxo-111">
          <mxGeometry width="50" height="26" as="geometry" />
        </mxCell>
        <mxCell id="vKOQVbaM08LlKD5KZnxo-109" value="neightbourhood | varchar(255) NOT NULL" style="shape=partialRectangle;top=0;left=0;right=0;bottom=0;align=left;verticalAlign=top;fillColor=none;spacingLeft=54;spacingRight=4;overflow=hidden;rotatable=0;points=[[0,0.5],[1,0.5]];portConstraint=eastwest;dropTarget=0;fontSize=12;" vertex="1" parent="vKOQVbaM08LlKD5KZnxo-76">
          <mxGeometry y="316" width="400" height="26" as="geometry" />
        </mxCell>
        <mxCell id="vKOQVbaM08LlKD5KZnxo-110" value="" style="shape=partialRectangle;top=0;left=0;bottom=0;fillColor=none;align=left;verticalAlign=top;spacingLeft=4;spacingRight=4;overflow=hidden;rotatable=0;points=[];portConstraint=eastwest;part=1;fontSize=12;" connectable="0" vertex="1" parent="vKOQVbaM08LlKD5KZnxo-109">
          <mxGeometry width="50" height="26" as="geometry" />
        </mxCell>
        <mxCell id="vKOQVbaM08LlKD5KZnxo-107" value="number | varchar(10) NOT NULL" style="shape=partialRectangle;top=0;left=0;right=0;bottom=0;align=left;verticalAlign=top;fillColor=none;spacingLeft=54;spacingRight=4;overflow=hidden;rotatable=0;points=[[0,0.5],[1,0.5]];portConstraint=eastwest;dropTarget=0;fontSize=12;" vertex="1" parent="vKOQVbaM08LlKD5KZnxo-76">
          <mxGeometry y="342" width="400" height="26" as="geometry" />
        </mxCell>
        <mxCell id="vKOQVbaM08LlKD5KZnxo-108" value="" style="shape=partialRectangle;top=0;left=0;bottom=0;fillColor=none;align=left;verticalAlign=top;spacingLeft=4;spacingRight=4;overflow=hidden;rotatable=0;points=[];portConstraint=eastwest;part=1;fontSize=12;" connectable="0" vertex="1" parent="vKOQVbaM08LlKD5KZnxo-107">
          <mxGeometry width="50" height="26" as="geometry" />
        </mxCell>
        <mxCell id="vKOQVbaM08LlKD5KZnxo-105" value="street | varchar(255) NOT NULL" style="shape=partialRectangle;top=0;left=0;right=0;bottom=0;align=left;verticalAlign=top;fillColor=none;spacingLeft=54;spacingRight=4;overflow=hidden;rotatable=0;points=[[0,0.5],[1,0.5]];portConstraint=eastwest;dropTarget=0;fontSize=12;" vertex="1" parent="vKOQVbaM08LlKD5KZnxo-76">
          <mxGeometry y="368" width="400" height="26" as="geometry" />
        </mxCell>
        <mxCell id="vKOQVbaM08LlKD5KZnxo-106" value="" style="shape=partialRectangle;top=0;left=0;bottom=0;fillColor=none;align=left;verticalAlign=top;spacingLeft=4;spacingRight=4;overflow=hidden;rotatable=0;points=[];portConstraint=eastwest;part=1;fontSize=12;" connectable="0" vertex="1" parent="vKOQVbaM08LlKD5KZnxo-105">
          <mxGeometry width="50" height="26" as="geometry" />
        </mxCell>
        <mxCell id="vKOQVbaM08LlKD5KZnxo-99" value="" style="shape=partialRectangle;top=0;left=0;right=0;bottom=0;align=left;verticalAlign=top;fillColor=none;spacingLeft=54;spacingRight=4;overflow=hidden;rotatable=0;points=[[0,0.5],[1,0.5]];portConstraint=eastwest;dropTarget=0;fontSize=12;" vertex="1" parent="vKOQVbaM08LlKD5KZnxo-76">
          <mxGeometry y="394" width="400" height="26" as="geometry" />
        </mxCell>
        <mxCell id="vKOQVbaM08LlKD5KZnxo-100" value="" style="shape=partialRectangle;top=0;left=0;bottom=0;fillColor=none;align=left;verticalAlign=top;spacingLeft=4;spacingRight=4;overflow=hidden;rotatable=0;points=[];portConstraint=eastwest;part=1;fontSize=12;" connectable="0" vertex="1" parent="vKOQVbaM08LlKD5KZnxo-99">
          <mxGeometry width="50" height="26" as="geometry" />
        </mxCell>
        <mxCell id="vKOQVbaM08LlKD5KZnxo-101" value="account_id" style="shape=partialRectangle;top=0;left=0;right=0;bottom=0;align=left;verticalAlign=top;fillColor=none;spacingLeft=54;spacingRight=4;overflow=hidden;rotatable=0;points=[[0,0.5],[1,0.5]];portConstraint=eastwest;dropTarget=0;fontSize=12;" vertex="1" parent="vKOQVbaM08LlKD5KZnxo-76">
          <mxGeometry y="420" width="400" height="26" as="geometry" />
        </mxCell>
        <mxCell id="vKOQVbaM08LlKD5KZnxo-102" value="FK" style="shape=partialRectangle;top=0;left=0;bottom=0;fillColor=none;align=center;verticalAlign=top;spacingLeft=4;spacingRight=4;overflow=hidden;rotatable=0;points=[];portConstraint=eastwest;part=1;fontSize=12;" connectable="0" vertex="1" parent="vKOQVbaM08LlKD5KZnxo-101">
          <mxGeometry width="50" height="26" as="geometry" />
        </mxCell>
        <mxCell id="vKOQVbaM08LlKD5KZnxo-103" value="" style="shape=partialRectangle;top=0;left=0;right=0;bottom=0;align=left;verticalAlign=top;fillColor=none;spacingLeft=54;spacingRight=4;overflow=hidden;rotatable=0;points=[[0,0.5],[1,0.5]];portConstraint=eastwest;dropTarget=0;fontSize=12;" vertex="1" parent="vKOQVbaM08LlKD5KZnxo-76">
          <mxGeometry y="446" width="400" height="10" as="geometry" />
        </mxCell>
        <mxCell id="vKOQVbaM08LlKD5KZnxo-104" value="" style="shape=partialRectangle;top=0;left=0;bottom=0;fillColor=none;align=left;verticalAlign=top;spacingLeft=4;spacingRight=4;overflow=hidden;rotatable=0;points=[];portConstraint=eastwest;part=1;fontSize=12;" connectable="0" vertex="1" parent="vKOQVbaM08LlKD5KZnxo-103">
          <mxGeometry width="50" height="10" as="geometry" />
        </mxCell>
        <mxCell id="vKOQVbaM08LlKD5KZnxo-158" value="MSUSERS_ACCOUNTS" style="swimlane;fontStyle=0;childLayout=stackLayout;horizontal=1;startSize=26;fillColor=#008CFF;horizontalStack=0;resizeParent=1;resizeParentMax=0;resizeLast=0;collapsible=1;marginBottom=0;swimlaneFillColor=#ffffff;align=center;fontSize=14;strokeColor=#000000;gradientColor=none;strokeWidth=2;rounded=1;fontColor=#FFFFFF;" vertex="1" parent="5_Z1TReD_J3Hb2p0v64i-1">
          <mxGeometry x="640" y="-1120" width="400" height="352" as="geometry" />
        </mxCell>
        <mxCell id="vKOQVbaM08LlKD5KZnxo-159" value="id | UUID NOT NULL" style="shape=partialRectangle;top=0;left=0;right=0;bottom=1;align=left;verticalAlign=middle;fillColor=none;spacingLeft=54;spacingRight=4;overflow=hidden;rotatable=0;points=[[0,0.5],[1,0.5]];portConstraint=eastwest;dropTarget=0;fontStyle=5;fontSize=12;" vertex="1" parent="vKOQVbaM08LlKD5KZnxo-158">
          <mxGeometry y="26" width="400" height="30" as="geometry" />
        </mxCell>
        <mxCell id="vKOQVbaM08LlKD5KZnxo-160" value="PK" style="shape=partialRectangle;top=0;left=0;bottom=0;fillColor=none;align=center;verticalAlign=middle;spacingLeft=4;spacingRight=4;overflow=hidden;rotatable=0;points=[];portConstraint=eastwest;part=1;fontSize=12;" connectable="0" vertex="1" parent="vKOQVbaM08LlKD5KZnxo-159">
          <mxGeometry width="50" height="30" as="geometry" />
        </mxCell>
        <mxCell id="vKOQVbaM08LlKD5KZnxo-161" value="created_at | timestamp NOT NULL" style="shape=partialRectangle;top=0;left=0;right=0;bottom=0;align=left;verticalAlign=top;fillColor=none;spacingLeft=54;spacingRight=4;overflow=hidden;rotatable=0;points=[[0,0.5],[1,0.5]];portConstraint=eastwest;dropTarget=0;fontSize=12;" vertex="1" parent="vKOQVbaM08LlKD5KZnxo-158">
          <mxGeometry y="56" width="400" height="26" as="geometry" />
        </mxCell>
        <mxCell id="vKOQVbaM08LlKD5KZnxo-162" value="" style="shape=partialRectangle;top=0;left=0;bottom=0;fillColor=none;align=left;verticalAlign=top;spacingLeft=4;spacingRight=4;overflow=hidden;rotatable=0;points=[];portConstraint=eastwest;part=1;fontSize=12;" connectable="0" vertex="1" parent="vKOQVbaM08LlKD5KZnxo-161">
          <mxGeometry width="50" height="26" as="geometry" />
        </mxCell>
        <mxCell id="vKOQVbaM08LlKD5KZnxo-163" value="updated_at | timestamp NOT NULL" style="shape=partialRectangle;top=0;left=0;right=0;bottom=0;align=left;verticalAlign=top;fillColor=none;spacingLeft=54;spacingRight=4;overflow=hidden;rotatable=0;points=[[0,0.5],[1,0.5]];portConstraint=eastwest;dropTarget=0;fontSize=12;" vertex="1" parent="vKOQVbaM08LlKD5KZnxo-158">
          <mxGeometry y="82" width="400" height="26" as="geometry" />
        </mxCell>
        <mxCell id="vKOQVbaM08LlKD5KZnxo-164" value="" style="shape=partialRectangle;top=0;left=0;bottom=0;fillColor=none;align=left;verticalAlign=top;spacingLeft=4;spacingRight=4;overflow=hidden;rotatable=0;points=[];portConstraint=eastwest;part=1;fontSize=12;" connectable="0" vertex="1" parent="vKOQVbaM08LlKD5KZnxo-163">
          <mxGeometry width="50" height="26" as="geometry" />
        </mxCell>
        <mxCell id="vKOQVbaM08LlKD5KZnxo-165" value="deleted | timestamp DEFAULT(null)" style="shape=partialRectangle;top=0;left=0;right=0;bottom=0;align=left;verticalAlign=top;fillColor=none;spacingLeft=54;spacingRight=4;overflow=hidden;rotatable=0;points=[[0,0.5],[1,0.5]];portConstraint=eastwest;dropTarget=0;fontSize=12;" vertex="1" parent="vKOQVbaM08LlKD5KZnxo-158">
          <mxGeometry y="108" width="400" height="26" as="geometry" />
        </mxCell>
        <mxCell id="vKOQVbaM08LlKD5KZnxo-166" value="" style="shape=partialRectangle;top=0;left=0;bottom=0;fillColor=none;align=left;verticalAlign=top;spacingLeft=4;spacingRight=4;overflow=hidden;rotatable=0;points=[];portConstraint=eastwest;part=1;fontSize=12;" connectable="0" vertex="1" parent="vKOQVbaM08LlKD5KZnxo-165">
          <mxGeometry width="50" height="26" as="geometry" />
        </mxCell>
        <mxCell id="vKOQVbaM08LlKD5KZnxo-167" value="deleted_at | timestamp DEFAULT(null)" style="shape=partialRectangle;top=0;left=0;right=0;bottom=0;align=left;verticalAlign=top;fillColor=none;spacingLeft=54;spacingRight=4;overflow=hidden;rotatable=0;points=[[0,0.5],[1,0.5]];portConstraint=eastwest;dropTarget=0;fontSize=12;" vertex="1" parent="vKOQVbaM08LlKD5KZnxo-158">
          <mxGeometry y="134" width="400" height="26" as="geometry" />
        </mxCell>
        <mxCell id="vKOQVbaM08LlKD5KZnxo-168" value="" style="shape=partialRectangle;top=0;left=0;bottom=0;fillColor=none;align=left;verticalAlign=top;spacingLeft=4;spacingRight=4;overflow=hidden;rotatable=0;points=[];portConstraint=eastwest;part=1;fontSize=12;" connectable="0" vertex="1" parent="vKOQVbaM08LlKD5KZnxo-167">
          <mxGeometry width="50" height="26" as="geometry" />
        </mxCell>
        <mxCell id="vKOQVbaM08LlKD5KZnxo-169" value="" style="shape=partialRectangle;top=0;left=0;right=0;bottom=0;align=left;verticalAlign=top;fillColor=none;spacingLeft=54;spacingRight=4;overflow=hidden;rotatable=0;points=[[0,0.5],[1,0.5]];portConstraint=eastwest;dropTarget=0;fontSize=12;" vertex="1" parent="vKOQVbaM08LlKD5KZnxo-158">
          <mxGeometry y="160" width="400" height="26" as="geometry" />
        </mxCell>
        <mxCell id="vKOQVbaM08LlKD5KZnxo-170" value="" style="shape=partialRectangle;top=0;left=0;bottom=0;fillColor=none;align=left;verticalAlign=top;spacingLeft=4;spacingRight=4;overflow=hidden;rotatable=0;points=[];portConstraint=eastwest;part=1;fontSize=12;" connectable="0" vertex="1" parent="vKOQVbaM08LlKD5KZnxo-169">
          <mxGeometry width="50" height="26" as="geometry" />
        </mxCell>
        <mxCell id="vKOQVbaM08LlKD5KZnxo-171" value="username | varchar(255) NOT NULL" style="shape=partialRectangle;top=0;left=0;right=0;bottom=0;align=left;verticalAlign=top;fillColor=none;spacingLeft=54;spacingRight=4;overflow=hidden;rotatable=0;points=[[0,0.5],[1,0.5]];portConstraint=eastwest;dropTarget=0;fontSize=12;" vertex="1" parent="vKOQVbaM08LlKD5KZnxo-158">
          <mxGeometry y="186" width="400" height="26" as="geometry" />
        </mxCell>
        <mxCell id="vKOQVbaM08LlKD5KZnxo-172" value="" style="shape=partialRectangle;top=0;left=0;bottom=0;fillColor=none;align=left;verticalAlign=top;spacingLeft=4;spacingRight=4;overflow=hidden;rotatable=0;points=[];portConstraint=eastwest;part=1;fontSize=12;" connectable="0" vertex="1" parent="vKOQVbaM08LlKD5KZnxo-171">
          <mxGeometry width="50" height="26" as="geometry" />
        </mxCell>
        <mxCell id="vKOQVbaM08LlKD5KZnxo-173" value="first_name | varchar(255) NOT NULL" style="shape=partialRectangle;top=0;left=0;right=0;bottom=0;align=left;verticalAlign=top;fillColor=none;spacingLeft=54;spacingRight=4;overflow=hidden;rotatable=0;points=[[0,0.5],[1,0.5]];portConstraint=eastwest;dropTarget=0;fontSize=12;" vertex="1" parent="vKOQVbaM08LlKD5KZnxo-158">
          <mxGeometry y="212" width="400" height="26" as="geometry" />
        </mxCell>
        <mxCell id="vKOQVbaM08LlKD5KZnxo-174" value="" style="shape=partialRectangle;top=0;left=0;bottom=0;fillColor=none;align=left;verticalAlign=top;spacingLeft=4;spacingRight=4;overflow=hidden;rotatable=0;points=[];portConstraint=eastwest;part=1;fontSize=12;" connectable="0" vertex="1" parent="vKOQVbaM08LlKD5KZnxo-173">
          <mxGeometry width="50" height="26" as="geometry" />
        </mxCell>
        <mxCell id="vKOQVbaM08LlKD5KZnxo-175" value="last_name | varchar(255) NOT NULL" style="shape=partialRectangle;top=0;left=0;right=0;bottom=0;align=left;verticalAlign=top;fillColor=none;spacingLeft=54;spacingRight=4;overflow=hidden;rotatable=0;points=[[0,0.5],[1,0.5]];portConstraint=eastwest;dropTarget=0;fontSize=12;" vertex="1" parent="vKOQVbaM08LlKD5KZnxo-158">
          <mxGeometry y="238" width="400" height="26" as="geometry" />
        </mxCell>
        <mxCell id="vKOQVbaM08LlKD5KZnxo-176" value="" style="shape=partialRectangle;top=0;left=0;bottom=0;fillColor=none;align=left;verticalAlign=top;spacingLeft=4;spacingRight=4;overflow=hidden;rotatable=0;points=[];portConstraint=eastwest;part=1;fontSize=12;" connectable="0" vertex="1" parent="vKOQVbaM08LlKD5KZnxo-175">
          <mxGeometry width="50" height="26" as="geometry" />
        </mxCell>
        <mxCell id="vKOQVbaM08LlKD5KZnxo-177" value="password | varchar(255) NOT NULL encrypt" style="shape=partialRectangle;top=0;left=0;right=0;bottom=0;align=left;verticalAlign=top;fillColor=none;spacingLeft=54;spacingRight=4;overflow=hidden;rotatable=0;points=[[0,0.5],[1,0.5]];portConstraint=eastwest;dropTarget=0;fontSize=12;" vertex="1" parent="vKOQVbaM08LlKD5KZnxo-158">
          <mxGeometry y="264" width="400" height="26" as="geometry" />
        </mxCell>
        <mxCell id="vKOQVbaM08LlKD5KZnxo-178" value="" style="shape=partialRectangle;top=0;left=0;bottom=0;fillColor=none;align=left;verticalAlign=top;spacingLeft=4;spacingRight=4;overflow=hidden;rotatable=0;points=[];portConstraint=eastwest;part=1;fontSize=12;" connectable="0" vertex="1" parent="vKOQVbaM08LlKD5KZnxo-177">
          <mxGeometry width="50" height="26" as="geometry" />
        </mxCell>
        <mxCell id="vKOQVbaM08LlKD5KZnxo-179" value="role | smallint NOT NULL DEFAULT(user) ENUM[USER | ADMIN | SYS_ADMIN]" style="shape=partialRectangle;top=0;left=0;right=0;bottom=0;align=left;verticalAlign=top;fillColor=none;spacingLeft=54;spacingRight=4;overflow=hidden;rotatable=0;points=[[0,0.5],[1,0.5]];portConstraint=eastwest;dropTarget=0;fontSize=12;" vertex="1" parent="vKOQVbaM08LlKD5KZnxo-158">
          <mxGeometry y="290" width="400" height="26" as="geometry" />
        </mxCell>
        <mxCell id="vKOQVbaM08LlKD5KZnxo-180" value="" style="shape=partialRectangle;top=0;left=0;bottom=0;fillColor=none;align=left;verticalAlign=top;spacingLeft=4;spacingRight=4;overflow=hidden;rotatable=0;points=[];portConstraint=eastwest;part=1;fontSize=12;" connectable="0" vertex="1" parent="vKOQVbaM08LlKD5KZnxo-179">
          <mxGeometry width="50" height="26" as="geometry" />
        </mxCell>
        <mxCell id="vKOQVbaM08LlKD5KZnxo-181" value="birthdate | date NOT NULL" style="shape=partialRectangle;top=0;left=0;right=0;bottom=0;align=left;verticalAlign=top;fillColor=none;spacingLeft=54;spacingRight=4;overflow=hidden;rotatable=0;points=[[0,0.5],[1,0.5]];portConstraint=eastwest;dropTarget=0;fontSize=12;" vertex="1" parent="vKOQVbaM08LlKD5KZnxo-158">
          <mxGeometry y="316" width="400" height="26" as="geometry" />
        </mxCell>
        <mxCell id="vKOQVbaM08LlKD5KZnxo-182" value="" style="shape=partialRectangle;top=0;left=0;bottom=0;fillColor=none;align=left;verticalAlign=top;spacingLeft=4;spacingRight=4;overflow=hidden;rotatable=0;points=[];portConstraint=eastwest;part=1;fontSize=12;" connectable="0" vertex="1" parent="vKOQVbaM08LlKD5KZnxo-181">
          <mxGeometry width="50" height="26" as="geometry" />
        </mxCell>
        <mxCell id="vKOQVbaM08LlKD5KZnxo-183" value="" style="shape=partialRectangle;top=0;left=0;right=0;bottom=0;align=left;verticalAlign=top;fillColor=none;spacingLeft=54;spacingRight=4;overflow=hidden;rotatable=0;points=[[0,0.5],[1,0.5]];portConstraint=eastwest;dropTarget=0;fontSize=12;" vertex="1" parent="vKOQVbaM08LlKD5KZnxo-158">
          <mxGeometry y="342" width="400" height="10" as="geometry" />
        </mxCell>
        <mxCell id="vKOQVbaM08LlKD5KZnxo-184" value="" style="shape=partialRectangle;top=0;left=0;bottom=0;fillColor=none;align=left;verticalAlign=top;spacingLeft=4;spacingRight=4;overflow=hidden;rotatable=0;points=[];portConstraint=eastwest;part=1;fontSize=12;" connectable="0" vertex="1" parent="vKOQVbaM08LlKD5KZnxo-183">
          <mxGeometry width="50" height="10" as="geometry" />
        </mxCell>
        <mxCell id="EtTtRilwKNHlJEtQdzgv-0" value="" style="fontSize=12;html=1;endArrow=ERoneToMany;rounded=0;startArrow=ERmandOne;startFill=0;entryX=0.5;entryY=0;entryDx=0;entryDy=0;exitX=0.498;exitY=1.206;exitDx=0;exitDy=0;exitPerimeter=0;" edge="1" parent="5_Z1TReD_J3Hb2p0v64i-1" source="vKOQVbaM08LlKD5KZnxo-183" target="vKOQVbaM08LlKD5KZnxo-29">
          <mxGeometry width="100" height="100" relative="1" as="geometry">
            <mxPoint x="839.72" y="-740" as="sourcePoint" />
            <mxPoint x="839.72" y="-680" as="targetPoint" />
          </mxGeometry>
        </mxCell>
        <mxCell id="EtTtRilwKNHlJEtQdzgv-1" value="(1,N) : (1,1)" style="text;html=1;align=center;verticalAlign=middle;resizable=0;points=[];autosize=1;strokeColor=none;fillColor=none;rotation=-90;" vertex="1" parent="5_Z1TReD_J3Hb2p0v64i-1">
          <mxGeometry x="784" y="-710" width="80" height="30" as="geometry" />
        </mxCell>
        <mxCell id="ON8O4mbfLEOwBPwuIjHN-0" value="(0,N) : (1,1)" style="text;html=1;align=center;verticalAlign=middle;resizable=0;points=[];autosize=1;strokeColor=none;fillColor=none;" vertex="1" parent="5_Z1TReD_J3Hb2p0v64i-1">
          <mxGeometry x="504.5" y="-975" width="80" height="30" as="geometry" />
        </mxCell>
        <mxCell id="ON8O4mbfLEOwBPwuIjHN-1" value="" style="fontSize=12;html=1;endArrow=ERmandOne;endFill=0;rounded=0;startArrow=ERzeroToMany;startFill=0;exitX=1;exitY=0.577;exitDx=0;exitDy=0;exitPerimeter=0;entryX=0;entryY=0.577;entryDx=0;entryDy=0;entryPerimeter=0;" edge="1" parent="5_Z1TReD_J3Hb2p0v64i-1" source="vKOQVbaM08LlKD5KZnxo-87" target="vKOQVbaM08LlKD5KZnxo-169">
          <mxGeometry width="100" height="100" relative="1" as="geometry">
            <mxPoint x="450" y="-945" as="sourcePoint" />
            <mxPoint x="570" y="-950" as="targetPoint" />
          </mxGeometry>
        </mxCell>
        <mxCell id="ON8O4mbfLEOwBPwuIjHN-2" value="(0,N) : (1,1)" style="text;html=1;align=center;verticalAlign=middle;resizable=0;points=[];autosize=1;strokeColor=none;fillColor=none;rotation=318;" vertex="1" parent="5_Z1TReD_J3Hb2p0v64i-1">
          <mxGeometry x="493" y="-715" width="80" height="30" as="geometry" />
        </mxCell>
        <mxCell id="ON8O4mbfLEOwBPwuIjHN-3" value="" style="fontSize=12;html=1;endArrow=ERmandOne;endFill=0;rounded=0;startArrow=ERzeroToMany;startFill=0;entryX=0;entryY=0.5;entryDx=0;entryDy=0;exitX=1;exitY=0;exitDx=0;exitDy=0;" edge="1" parent="5_Z1TReD_J3Hb2p0v64i-1" source="vKOQVbaM08LlKD5KZnxo-0" target="vKOQVbaM08LlKD5KZnxo-183">
          <mxGeometry width="100" height="100" relative="1" as="geometry">
            <mxPoint x="400" y="-647.95" as="sourcePoint" />
            <mxPoint x="600" y="-647.95" as="targetPoint" />
          </mxGeometry>
        </mxCell>
        <mxCell id="lxqKqUffsBTc-WX54yn1-0" value="MSUSERS_ADMINS" style="swimlane;fontStyle=0;childLayout=stackLayout;horizontal=1;startSize=26;fillColor=#008CFF;horizontalStack=0;resizeParent=1;resizeParentMax=0;resizeLast=0;collapsible=1;marginBottom=0;swimlaneFillColor=#ffffff;align=center;fontSize=14;strokeColor=#000000;gradientColor=none;strokeWidth=2;rounded=1;fontColor=#FFFFFF;" vertex="1" parent="5_Z1TReD_J3Hb2p0v64i-1">
          <mxGeometry x="1240" y="-1120" width="400" height="66" as="geometry" />
        </mxCell>
        <mxCell id="lxqKqUffsBTc-WX54yn1-1" value="account_id | UUID NOT NULL" style="shape=partialRectangle;top=0;left=0;right=0;bottom=1;align=left;verticalAlign=middle;fillColor=none;spacingLeft=54;spacingRight=4;overflow=hidden;rotatable=0;points=[[0,0.5],[1,0.5]];portConstraint=eastwest;dropTarget=0;fontStyle=5;fontSize=12;" vertex="1" parent="lxqKqUffsBTc-WX54yn1-0">
          <mxGeometry y="26" width="400" height="30" as="geometry" />
        </mxCell>
        <mxCell id="lxqKqUffsBTc-WX54yn1-2" value="PKFK" style="shape=partialRectangle;top=0;left=0;bottom=0;fillColor=none;align=center;verticalAlign=middle;spacingLeft=4;spacingRight=4;overflow=hidden;rotatable=0;points=[];portConstraint=eastwest;part=1;fontSize=12;" connectable="0" vertex="1" parent="lxqKqUffsBTc-WX54yn1-1">
          <mxGeometry width="50" height="30" as="geometry" />
        </mxCell>
        <mxCell id="lxqKqUffsBTc-WX54yn1-25" value="" style="shape=partialRectangle;top=0;left=0;right=0;bottom=0;align=left;verticalAlign=top;fillColor=none;spacingLeft=54;spacingRight=4;overflow=hidden;rotatable=0;points=[[0,0.5],[1,0.5]];portConstraint=eastwest;dropTarget=0;fontSize=12;" vertex="1" parent="lxqKqUffsBTc-WX54yn1-0">
          <mxGeometry y="56" width="400" height="10" as="geometry" />
        </mxCell>
        <mxCell id="lxqKqUffsBTc-WX54yn1-26" value="" style="shape=partialRectangle;top=0;left=0;bottom=0;fillColor=none;align=left;verticalAlign=top;spacingLeft=4;spacingRight=4;overflow=hidden;rotatable=0;points=[];portConstraint=eastwest;part=1;fontSize=12;" connectable="0" vertex="1" parent="lxqKqUffsBTc-WX54yn1-25">
          <mxGeometry width="50" height="10" as="geometry" />
        </mxCell>
        <mxCell id="v77Wc18A4Ir4u7LjaxT1-0" value="" style="html=1;endSize=30;endArrow=block;endFill=0;elbow=horizontal;rounded=0;labelBackgroundColor=default;fontFamily=Helvetica;fontSize=11;fontColor=default;shape=connector;strokeWidth=1;entryX=1;entryY=0.5;entryDx=0;entryDy=0;exitX=0;exitY=0.5;exitDx=0;exitDy=0;" edge="1" parent="5_Z1TReD_J3Hb2p0v64i-1" source="lxqKqUffsBTc-WX54yn1-1" target="vKOQVbaM08LlKD5KZnxo-159">
          <mxGeometry x="1" relative="1" as="geometry">
            <mxPoint x="1090" y="-950" as="targetPoint" />
            <mxPoint x="1210" y="-950" as="sourcePoint" />
          </mxGeometry>
        </mxCell>
        <mxCell id="dQXAUA3ijsLd8Og8Uel5-0" value="Generalization / Inheritance" style="text;html=1;align=center;verticalAlign=middle;resizable=0;points=[];autosize=1;strokeColor=none;fillColor=none;" vertex="1" parent="5_Z1TReD_J3Hb2p0v64i-1">
          <mxGeometry x="1070" y="-1110" width="170" height="30" as="geometry" />
        </mxCell>
        <mxCell id="dQXAUA3ijsLd8Og8Uel5-1" value="MSUSERS_ADMINS" style="swimlane;fontStyle=0;childLayout=stackLayout;horizontal=1;startSize=26;fillColor=#008CFF;horizontalStack=0;resizeParent=1;resizeParentMax=0;resizeLast=0;collapsible=1;marginBottom=0;swimlaneFillColor=#ffffff;align=center;fontSize=14;strokeColor=#000000;gradientColor=none;strokeWidth=2;rounded=1;fontColor=#FFFFFF;" vertex="1" parent="5_Z1TReD_J3Hb2p0v64i-1">
          <mxGeometry x="1240" y="-1000" width="400" height="66" as="geometry" />
        </mxCell>
        <mxCell id="dQXAUA3ijsLd8Og8Uel5-2" value="account_id | UUID NOT NULL" style="shape=partialRectangle;top=0;left=0;right=0;bottom=1;align=left;verticalAlign=middle;fillColor=none;spacingLeft=54;spacingRight=4;overflow=hidden;rotatable=0;points=[[0,0.5],[1,0.5]];portConstraint=eastwest;dropTarget=0;fontStyle=5;fontSize=12;" vertex="1" parent="dQXAUA3ijsLd8Og8Uel5-1">
          <mxGeometry y="26" width="400" height="30" as="geometry" />
        </mxCell>
        <mxCell id="dQXAUA3ijsLd8Og8Uel5-3" value="PKFK" style="shape=partialRectangle;top=0;left=0;bottom=0;fillColor=none;align=center;verticalAlign=middle;spacingLeft=4;spacingRight=4;overflow=hidden;rotatable=0;points=[];portConstraint=eastwest;part=1;fontSize=12;" connectable="0" vertex="1" parent="dQXAUA3ijsLd8Og8Uel5-2">
          <mxGeometry width="50" height="30" as="geometry" />
        </mxCell>
        <mxCell id="dQXAUA3ijsLd8Og8Uel5-4" value="" style="shape=partialRectangle;top=0;left=0;right=0;bottom=0;align=left;verticalAlign=top;fillColor=none;spacingLeft=54;spacingRight=4;overflow=hidden;rotatable=0;points=[[0,0.5],[1,0.5]];portConstraint=eastwest;dropTarget=0;fontSize=12;" vertex="1" parent="dQXAUA3ijsLd8Og8Uel5-1">
          <mxGeometry y="56" width="400" height="10" as="geometry" />
        </mxCell>
        <mxCell id="dQXAUA3ijsLd8Og8Uel5-5" value="" style="shape=partialRectangle;top=0;left=0;bottom=0;fillColor=none;align=left;verticalAlign=top;spacingLeft=4;spacingRight=4;overflow=hidden;rotatable=0;points=[];portConstraint=eastwest;part=1;fontSize=12;" connectable="0" vertex="1" parent="dQXAUA3ijsLd8Og8Uel5-4">
          <mxGeometry width="50" height="10" as="geometry" />
        </mxCell>
        <mxCell id="dQXAUA3ijsLd8Og8Uel5-7" value="Generalization / Inheritance" style="text;html=1;align=center;verticalAlign=middle;resizable=0;points=[];autosize=1;strokeColor=none;fillColor=none;" vertex="1" parent="5_Z1TReD_J3Hb2p0v64i-1">
          <mxGeometry x="1070" y="-990" width="170" height="30" as="geometry" />
        </mxCell>
        <mxCell id="dQXAUA3ijsLd8Og8Uel5-8" value="" style="html=1;endSize=30;endArrow=block;endFill=0;elbow=horizontal;rounded=0;labelBackgroundColor=default;fontFamily=Helvetica;fontSize=11;fontColor=default;shape=connector;strokeWidth=1;entryX=1.001;entryY=0.022;entryDx=0;entryDy=0;exitX=0;exitY=0.5;exitDx=0;exitDy=0;entryPerimeter=0;" edge="1" parent="5_Z1TReD_J3Hb2p0v64i-1" target="vKOQVbaM08LlKD5KZnxo-169">
          <mxGeometry x="1" relative="1" as="geometry">
            <mxPoint x="1040.3999999999999" y="-959.996" as="targetPoint" />
            <mxPoint x="1240" y="-959.62" as="sourcePoint" />
          </mxGeometry>
        </mxCell>
        <mxCell id="dQXAUA3ijsLd8Og8Uel5-9" value="MSUSERS_API_KEYS" style="swimlane;fontStyle=0;childLayout=stackLayout;horizontal=1;startSize=26;fillColor=#008CFF;horizontalStack=0;resizeParent=1;resizeParentMax=0;resizeLast=0;collapsible=1;marginBottom=0;swimlaneFillColor=#ffffff;align=center;fontSize=14;strokeColor=#000000;gradientColor=none;strokeWidth=2;rounded=1;fontColor=#FFFFFF;" vertex="1" parent="5_Z1TReD_J3Hb2p0v64i-1">
          <mxGeometry x="1240" y="-600" width="400" height="378" as="geometry" />
        </mxCell>
        <mxCell id="dQXAUA3ijsLd8Og8Uel5-10" value="id | UUID NOT NULL" style="shape=partialRectangle;top=0;left=0;right=0;bottom=1;align=left;verticalAlign=middle;fillColor=none;spacingLeft=54;spacingRight=4;overflow=hidden;rotatable=0;points=[[0,0.5],[1,0.5]];portConstraint=eastwest;dropTarget=0;fontStyle=5;fontSize=12;" vertex="1" parent="dQXAUA3ijsLd8Og8Uel5-9">
          <mxGeometry y="26" width="400" height="30" as="geometry" />
        </mxCell>
        <mxCell id="dQXAUA3ijsLd8Og8Uel5-11" value="PK" style="shape=partialRectangle;top=0;left=0;bottom=0;fillColor=none;align=center;verticalAlign=middle;spacingLeft=4;spacingRight=4;overflow=hidden;rotatable=0;points=[];portConstraint=eastwest;part=1;fontSize=12;" connectable="0" vertex="1" parent="dQXAUA3ijsLd8Og8Uel5-10">
          <mxGeometry width="50" height="30" as="geometry" />
        </mxCell>
        <mxCell id="dQXAUA3ijsLd8Og8Uel5-12" value="created_at | timestamp NOT NULL" style="shape=partialRectangle;top=0;left=0;right=0;bottom=0;align=left;verticalAlign=top;fillColor=none;spacingLeft=54;spacingRight=4;overflow=hidden;rotatable=0;points=[[0,0.5],[1,0.5]];portConstraint=eastwest;dropTarget=0;fontSize=12;" vertex="1" parent="dQXAUA3ijsLd8Og8Uel5-9">
          <mxGeometry y="56" width="400" height="26" as="geometry" />
        </mxCell>
        <mxCell id="dQXAUA3ijsLd8Og8Uel5-13" value="" style="shape=partialRectangle;top=0;left=0;bottom=0;fillColor=none;align=left;verticalAlign=top;spacingLeft=4;spacingRight=4;overflow=hidden;rotatable=0;points=[];portConstraint=eastwest;part=1;fontSize=12;" connectable="0" vertex="1" parent="dQXAUA3ijsLd8Og8Uel5-12">
          <mxGeometry width="50" height="26" as="geometry" />
        </mxCell>
        <mxCell id="dQXAUA3ijsLd8Og8Uel5-14" value="updated_at | timestamp NOT NULL" style="shape=partialRectangle;top=0;left=0;right=0;bottom=0;align=left;verticalAlign=top;fillColor=none;spacingLeft=54;spacingRight=4;overflow=hidden;rotatable=0;points=[[0,0.5],[1,0.5]];portConstraint=eastwest;dropTarget=0;fontSize=12;" vertex="1" parent="dQXAUA3ijsLd8Og8Uel5-9">
          <mxGeometry y="82" width="400" height="26" as="geometry" />
        </mxCell>
        <mxCell id="dQXAUA3ijsLd8Og8Uel5-15" value="" style="shape=partialRectangle;top=0;left=0;bottom=0;fillColor=none;align=left;verticalAlign=top;spacingLeft=4;spacingRight=4;overflow=hidden;rotatable=0;points=[];portConstraint=eastwest;part=1;fontSize=12;" connectable="0" vertex="1" parent="dQXAUA3ijsLd8Og8Uel5-14">
          <mxGeometry width="50" height="26" as="geometry" />
        </mxCell>
        <mxCell id="dQXAUA3ijsLd8Og8Uel5-16" value="deleted | timestamp DEFAULT(null)" style="shape=partialRectangle;top=0;left=0;right=0;bottom=0;align=left;verticalAlign=top;fillColor=none;spacingLeft=54;spacingRight=4;overflow=hidden;rotatable=0;points=[[0,0.5],[1,0.5]];portConstraint=eastwest;dropTarget=0;fontSize=12;" vertex="1" parent="dQXAUA3ijsLd8Og8Uel5-9">
          <mxGeometry y="108" width="400" height="26" as="geometry" />
        </mxCell>
        <mxCell id="dQXAUA3ijsLd8Og8Uel5-17" value="" style="shape=partialRectangle;top=0;left=0;bottom=0;fillColor=none;align=left;verticalAlign=top;spacingLeft=4;spacingRight=4;overflow=hidden;rotatable=0;points=[];portConstraint=eastwest;part=1;fontSize=12;" connectable="0" vertex="1" parent="dQXAUA3ijsLd8Og8Uel5-16">
          <mxGeometry width="50" height="26" as="geometry" />
        </mxCell>
        <mxCell id="dQXAUA3ijsLd8Og8Uel5-18" value="deleted_at | timestamp DEFAULT(null)" style="shape=partialRectangle;top=0;left=0;right=0;bottom=0;align=left;verticalAlign=top;fillColor=none;spacingLeft=54;spacingRight=4;overflow=hidden;rotatable=0;points=[[0,0.5],[1,0.5]];portConstraint=eastwest;dropTarget=0;fontSize=12;" vertex="1" parent="dQXAUA3ijsLd8Og8Uel5-9">
          <mxGeometry y="134" width="400" height="26" as="geometry" />
        </mxCell>
        <mxCell id="dQXAUA3ijsLd8Og8Uel5-19" value="" style="shape=partialRectangle;top=0;left=0;bottom=0;fillColor=none;align=left;verticalAlign=top;spacingLeft=4;spacingRight=4;overflow=hidden;rotatable=0;points=[];portConstraint=eastwest;part=1;fontSize=12;" connectable="0" vertex="1" parent="dQXAUA3ijsLd8Og8Uel5-18">
          <mxGeometry width="50" height="26" as="geometry" />
        </mxCell>
        <mxCell id="dQXAUA3ijsLd8Og8Uel5-20" value="" style="shape=partialRectangle;top=0;left=0;right=0;bottom=0;align=left;verticalAlign=top;fillColor=none;spacingLeft=54;spacingRight=4;overflow=hidden;rotatable=0;points=[[0,0.5],[1,0.5]];portConstraint=eastwest;dropTarget=0;fontSize=12;" vertex="1" parent="dQXAUA3ijsLd8Og8Uel5-9">
          <mxGeometry y="160" width="400" height="26" as="geometry" />
        </mxCell>
        <mxCell id="dQXAUA3ijsLd8Og8Uel5-21" value="" style="shape=partialRectangle;top=0;left=0;bottom=0;fillColor=none;align=left;verticalAlign=top;spacingLeft=4;spacingRight=4;overflow=hidden;rotatable=0;points=[];portConstraint=eastwest;part=1;fontSize=12;" connectable="0" vertex="1" parent="dQXAUA3ijsLd8Og8Uel5-20">
          <mxGeometry width="50" height="26" as="geometry" />
        </mxCell>
        <mxCell id="dQXAUA3ijsLd8Og8Uel5-22" value="name | varchar(255) NOT NULL" style="shape=partialRectangle;top=0;left=0;right=0;bottom=0;align=left;verticalAlign=top;fillColor=none;spacingLeft=54;spacingRight=4;overflow=hidden;rotatable=0;points=[[0,0.5],[1,0.5]];portConstraint=eastwest;dropTarget=0;fontSize=12;" vertex="1" parent="dQXAUA3ijsLd8Og8Uel5-9">
          <mxGeometry y="186" width="400" height="26" as="geometry" />
        </mxCell>
        <mxCell id="dQXAUA3ijsLd8Og8Uel5-23" value="" style="shape=partialRectangle;top=0;left=0;bottom=0;fillColor=none;align=left;verticalAlign=top;spacingLeft=4;spacingRight=4;overflow=hidden;rotatable=0;points=[];portConstraint=eastwest;part=1;fontSize=12;" connectable="0" vertex="1" parent="dQXAUA3ijsLd8Og8Uel5-22">
          <mxGeometry width="50" height="26" as="geometry" />
        </mxCell>
        <mxCell id="dQXAUA3ijsLd8Og8Uel5-24" value="description | text DEFAULT(null)" style="shape=partialRectangle;top=0;left=0;right=0;bottom=0;align=left;verticalAlign=top;fillColor=none;spacingLeft=54;spacingRight=4;overflow=hidden;rotatable=0;points=[[0,0.5],[1,0.5]];portConstraint=eastwest;dropTarget=0;fontSize=12;" vertex="1" parent="dQXAUA3ijsLd8Og8Uel5-9">
          <mxGeometry y="212" width="400" height="26" as="geometry" />
        </mxCell>
        <mxCell id="dQXAUA3ijsLd8Og8Uel5-25" value="" style="shape=partialRectangle;top=0;left=0;bottom=0;fillColor=none;align=left;verticalAlign=top;spacingLeft=4;spacingRight=4;overflow=hidden;rotatable=0;points=[];portConstraint=eastwest;part=1;fontSize=12;" connectable="0" vertex="1" parent="dQXAUA3ijsLd8Og8Uel5-24">
          <mxGeometry width="50" height="26" as="geometry" />
        </mxCell>
        <mxCell id="dQXAUA3ijsLd8Og8Uel5-36" value="last_used_at | timestamp NOT NULL" style="shape=partialRectangle;top=0;left=0;right=0;bottom=0;align=left;verticalAlign=top;fillColor=none;spacingLeft=54;spacingRight=4;overflow=hidden;rotatable=0;points=[[0,0.5],[1,0.5]];portConstraint=eastwest;dropTarget=0;fontSize=12;" vertex="1" parent="dQXAUA3ijsLd8Og8Uel5-9">
          <mxGeometry y="238" width="400" height="26" as="geometry" />
        </mxCell>
        <mxCell id="dQXAUA3ijsLd8Og8Uel5-37" value="" style="shape=partialRectangle;top=0;left=0;bottom=0;fillColor=none;align=left;verticalAlign=top;spacingLeft=4;spacingRight=4;overflow=hidden;rotatable=0;points=[];portConstraint=eastwest;part=1;fontSize=12;" connectable="0" vertex="1" parent="dQXAUA3ijsLd8Og8Uel5-36">
          <mxGeometry width="50" height="26" as="geometry" />
        </mxCell>
        <mxCell id="dQXAUA3ijsLd8Og8Uel5-38" value="expires_at | timestamp NOT NULL" style="shape=partialRectangle;top=0;left=0;right=0;bottom=0;align=left;verticalAlign=top;fillColor=none;spacingLeft=54;spacingRight=4;overflow=hidden;rotatable=0;points=[[0,0.5],[1,0.5]];portConstraint=eastwest;dropTarget=0;fontSize=12;" vertex="1" parent="dQXAUA3ijsLd8Og8Uel5-9">
          <mxGeometry y="264" width="400" height="26" as="geometry" />
        </mxCell>
        <mxCell id="dQXAUA3ijsLd8Og8Uel5-39" value="" style="shape=partialRectangle;top=0;left=0;bottom=0;fillColor=none;align=left;verticalAlign=top;spacingLeft=4;spacingRight=4;overflow=hidden;rotatable=0;points=[];portConstraint=eastwest;part=1;fontSize=12;" connectable="0" vertex="1" parent="dQXAUA3ijsLd8Og8Uel5-38">
          <mxGeometry width="50" height="26" as="geometry" />
        </mxCell>
        <mxCell id="dQXAUA3ijsLd8Og8Uel5-30" value="hashed_key | varchar(255) NOT NULL uuid_prefix + key_encrypt" style="shape=partialRectangle;top=0;left=0;right=0;bottom=0;align=left;verticalAlign=top;fillColor=none;spacingLeft=54;spacingRight=4;overflow=hidden;rotatable=0;points=[[0,0.5],[1,0.5]];portConstraint=eastwest;dropTarget=0;fontSize=12;" vertex="1" parent="dQXAUA3ijsLd8Og8Uel5-9">
          <mxGeometry y="290" width="400" height="26" as="geometry" />
        </mxCell>
        <mxCell id="dQXAUA3ijsLd8Og8Uel5-31" value="" style="shape=partialRectangle;top=0;left=0;bottom=0;fillColor=none;align=left;verticalAlign=top;spacingLeft=4;spacingRight=4;overflow=hidden;rotatable=0;points=[];portConstraint=eastwest;part=1;fontSize=12;" connectable="0" vertex="1" parent="dQXAUA3ijsLd8Og8Uel5-30">
          <mxGeometry width="50" height="26" as="geometry" />
        </mxCell>
        <mxCell id="dQXAUA3ijsLd8Og8Uel5-40" value="" style="shape=partialRectangle;top=0;left=0;right=0;bottom=0;align=left;verticalAlign=top;fillColor=none;spacingLeft=54;spacingRight=4;overflow=hidden;rotatable=0;points=[[0,0.5],[1,0.5]];portConstraint=eastwest;dropTarget=0;fontSize=12;" vertex="1" parent="dQXAUA3ijsLd8Og8Uel5-9">
          <mxGeometry y="316" width="400" height="26" as="geometry" />
        </mxCell>
        <mxCell id="dQXAUA3ijsLd8Og8Uel5-41" value="" style="shape=partialRectangle;top=0;left=0;bottom=0;fillColor=none;align=left;verticalAlign=top;spacingLeft=4;spacingRight=4;overflow=hidden;rotatable=0;points=[];portConstraint=eastwest;part=1;fontSize=12;" connectable="0" vertex="1" parent="dQXAUA3ijsLd8Og8Uel5-40">
          <mxGeometry width="50" height="26" as="geometry" />
        </mxCell>
        <mxCell id="dQXAUA3ijsLd8Og8Uel5-42" value="account_id" style="shape=partialRectangle;top=0;left=0;right=0;bottom=0;align=left;verticalAlign=top;fillColor=none;spacingLeft=54;spacingRight=4;overflow=hidden;rotatable=0;points=[[0,0.5],[1,0.5]];portConstraint=eastwest;dropTarget=0;fontSize=12;" vertex="1" parent="dQXAUA3ijsLd8Og8Uel5-9">
          <mxGeometry y="342" width="400" height="26" as="geometry" />
        </mxCell>
        <mxCell id="dQXAUA3ijsLd8Og8Uel5-43" value="FK" style="shape=partialRectangle;top=0;left=0;bottom=0;fillColor=none;align=center;verticalAlign=top;spacingLeft=4;spacingRight=4;overflow=hidden;rotatable=0;points=[];portConstraint=eastwest;part=1;fontSize=12;" connectable="0" vertex="1" parent="dQXAUA3ijsLd8Og8Uel5-42">
          <mxGeometry width="50" height="26" as="geometry" />
        </mxCell>
        <mxCell id="dQXAUA3ijsLd8Og8Uel5-34" value="" style="shape=partialRectangle;top=0;left=0;right=0;bottom=0;align=left;verticalAlign=top;fillColor=none;spacingLeft=54;spacingRight=4;overflow=hidden;rotatable=0;points=[[0,0.5],[1,0.5]];portConstraint=eastwest;dropTarget=0;fontSize=12;" vertex="1" parent="dQXAUA3ijsLd8Og8Uel5-9">
          <mxGeometry y="368" width="400" height="10" as="geometry" />
        </mxCell>
        <mxCell id="dQXAUA3ijsLd8Og8Uel5-35" value="" style="shape=partialRectangle;top=0;left=0;bottom=0;fillColor=none;align=left;verticalAlign=top;spacingLeft=4;spacingRight=4;overflow=hidden;rotatable=0;points=[];portConstraint=eastwest;part=1;fontSize=12;" connectable="0" vertex="1" parent="dQXAUA3ijsLd8Og8Uel5-34">
          <mxGeometry width="50" height="10" as="geometry" />
        </mxCell>
        <mxCell id="Lu_xTaXeewBx992iLL35-4" value="" style="fontSize=12;html=1;endArrow=ERzeroToMany;endFill=1;rounded=0;startArrow=ERmandOne;startFill=0;exitX=0.5;exitY=1;exitDx=0;exitDy=0;entryX=0.5;entryY=0;entryDx=0;entryDy=0;" edge="1" parent="5_Z1TReD_J3Hb2p0v64i-1" source="dQXAUA3ijsLd8Og8Uel5-1" target="dQXAUA3ijsLd8Og8Uel5-9">
          <mxGeometry width="100" height="100" relative="1" as="geometry">
            <mxPoint x="1440" y="-920" as="sourcePoint" />
            <mxPoint x="1440.26" y="-732.6700000000001" as="targetPoint" />
          </mxGeometry>
        </mxCell>
        <mxCell id="Lu_xTaXeewBx992iLL35-5" value="(0,N) : (1,1)" style="text;html=1;align=center;verticalAlign=middle;resizable=0;points=[];autosize=1;strokeColor=none;fillColor=none;rotation=-90;" vertex="1" parent="5_Z1TReD_J3Hb2p0v64i-1">
          <mxGeometry x="1385" y="-780" width="80" height="30" as="geometry" />
        </mxCell>
      </root>
    </mxGraphModel>
  </diagram>
</mxfile>
